<svg width="60" height="266" viewBox="0 0 60 266" fill="none" xmlns="http://www.w3.org/2000/svg">
<path d="M1.89302 101.929C5.40629 101.415 8.88734 101.044 12.4006 100.784C18.6617 100.319 24.8905 100.567 31.1596 100.852C32.8437 100.932 34.5278 101.013 36.2119 101.118C37.2917 101.186 38.6132 100.901 39.5157 100.437C40.257 100.053 40.1362 99.6753 39.2337 99.6195C34.5681 99.3285 29.8945 99.149 25.2209 99.0313C19.1049 98.8765 13.0372 99.3099 6.99372 100.01C5.57551 100.177 4.15731 100.35 2.74716 100.554C2.08641 100.654 0.2089 100.92 0.0155091 101.551C-0.177882 102.183 1.53847 101.979 1.89302 101.929Z" fill="#5E5E5E"/>
<path d="M3.89302 259.929C7.40629 259.415 10.8873 259.044 14.4006 258.784C20.6617 258.319 26.8905 258.567 33.1596 258.852C34.8437 258.932 36.5278 259.013 38.2119 259.118C39.2917 259.186 40.6132 258.901 41.5157 258.437C42.257 258.053 42.1362 257.675 41.2337 257.62C36.5681 257.329 31.8945 257.149 27.2209 257.031C21.1049 256.877 15.0372 257.31 8.99372 258.01C7.57551 258.177 6.15731 258.35 4.74716 258.554C4.08641 258.654 2.2089 258.92 2.01551 259.551C1.82212 260.183 3.53847 259.979 3.89302 259.929Z" fill="#5E5E5E"/>
<path d="M1.41985 2.929C4.05481 2.4151 6.6656 2.0436 9.30056 1.78355C13.9963 1.31918 18.6679 1.56685 23.3698 1.85166C24.6329 1.93215 25.896 2.01264 27.159 2.1179C27.9689 2.18601 28.96 1.9012 29.6369 1.43682C30.1929 1.05294 30.1022 0.675255 29.4253 0.619531C25.9262 0.328525 22.421 0.148968 18.9157 0.0313269C14.3287 -0.123464 9.77799 0.30995 5.24538 1.0096C4.18173 1.17678 3.11807 1.35014 2.06046 1.55446C1.5649 1.65353 0.156767 1.91977 0.0117234 2.55132C-0.13332 3.18286 1.15394 2.97854 1.41985 2.929Z" fill="#5E5E5E"/>
<path d="M2.92939 248.698C2.41548 225.861 2.04398 203.235 1.78393 180.398C1.31955 139.702 1.56722 99.2143 1.85203 58.4651C1.93252 47.5183 2.01301 36.5716 2.11827 25.6248C2.18638 18.6063 1.90156 10.0165 1.43719 4.15029C1.0533 -0.668376 0.675614 0.117288 0.619889 5.98349C0.328883 36.3097 0.149326 66.6882 0.0316862 97.0668C-0.123103 136.821 0.310314 176.261 1.00997 215.543C1.17715 224.762 1.35051 233.98 1.55484 243.146C1.65391 247.441 1.92015 259.645 2.5517 260.902C3.18324 262.159 2.97892 251.002 2.92939 248.698Z" fill="#5E5E5E"/>
<path d="M57.329 100.922C53.9636 102.638 50.6209 104.396 47.2329 106.069C44.116 107.615 40.7054 109.112 37.0916 108.865C37.31 109.006 37.5283 109.14 37.7466 109.281C39.1545 106.224 43.1824 103.443 42.5651 99.7715C42.0305 96.6015 37.9951 95.3378 37.1895 92.2808C36.6022 92.5491 36.015 92.8174 35.4278 93.0857C43.0695 94.893 50.1465 98.3312 57.1257 101.678C57.7205 101.967 59.7307 101.134 58.8724 100.725C51.7577 97.3146 44.5677 93.8693 36.7754 92.0196C36.3613 91.9208 34.8405 92.1961 35.0137 92.8245C35.8117 95.8461 39.6665 97.1028 40.3516 100.11C40.7581 101.889 39.6364 103.619 38.6275 105.031C37.5659 106.514 36.3387 107.905 35.5783 109.549C35.4278 109.881 36.0526 109.952 36.2333 109.966C40.1709 110.241 43.9805 108.801 47.4362 107.17C51.2382 105.384 54.9348 103.379 58.6767 101.473C59.023 101.296 59.2714 100.965 58.8799 100.717C58.4659 100.47 57.6904 100.739 57.329 100.922Z" fill="#5E5E5E"/>
<path d="M57.329 256.922C53.9636 258.638 50.6209 260.396 47.2329 262.069C44.116 263.615 40.7054 265.112 37.0916 264.865C37.31 265.006 37.5283 265.14 37.7466 265.281C39.1545 262.224 43.1824 259.443 42.5651 255.771C42.0305 252.602 37.9951 251.338 37.1895 248.281C36.6022 248.549 36.015 248.817 35.4278 249.086C43.0695 250.893 50.1465 254.331 57.1257 257.678C57.7205 257.967 59.7307 257.134 58.8724 256.725C51.7577 253.315 44.5677 249.869 36.7754 248.02C36.3613 247.921 34.8405 248.196 35.0137 248.824C35.8117 251.846 39.6665 253.103 40.3516 256.11C40.7581 257.889 39.6364 259.619 38.6275 261.031C37.5659 262.514 36.3387 263.905 35.5783 265.549C35.4278 265.881 36.0526 265.952 36.2333 265.966C40.1709 266.241 43.9805 264.801 47.4362 263.17C51.2382 261.384 54.9348 259.379 58.6767 257.473C59.023 257.296 59.2714 256.965 58.8799 256.717C58.4659 256.47 57.6904 256.739 57.329 256.922Z" fill="#5E5E5E"/>
</svg>
