<svg width="24" height="24" viewBox="0 0 24 24" fill="none" xmlns="http://www.w3.org/2000/svg">
<path d="M12 23.25C18.2132 23.25 23.25 18.2132 23.25 12C23.25 5.7868 18.2132 0.75 12 0.75C5.7868 0.75 0.75 5.7868 0.75 12C0.75 18.2132 5.7868 23.25 12 23.25Z" fill="#FFC524"/>
<path d="M15.15 16.9125V8.5875C15.15 5.925 13.05 3.75 10.4625 3.75C9.225 3.75 8.025 4.2375 7.125 5.175L9.0375 7.125C9.4125 6.75 9.9375 6.525 10.4625 6.525C11.5875 6.525 12.4875 7.4625 12.4875 8.5875V16.9125H10.7625L13.8375 20.25L16.9125 16.9125H15.15Z" fill="#006F7A"/>
</svg>
