<svg width="245" height="76" viewBox="0 0 245 76" fill="none" xmlns="http://www.w3.org/2000/svg">
<ellipse cx="124.5" cy="37" rx="117.5" ry="37" fill="#FCBE3A"/>
<path d="M127.179 76C109.004 76 92.3205 74.943 80.4307 73.3758C58.7655 70.5248 34.7398 63.4298 19.215 55.3061C-0.00271804 45.2507 -5.01351 34.4745 5.12394 24.9617C17.0572 13.7684 47.7592 8.11908 71.4373 5.35314C96.9982 2.36042 120.097 2.00405 120.314 2L120.459 2.80994C120.227 2.81399 97.563 3.16631 72.4656 6.11044C49.4101 8.80753 19.5046 14.3111 7.90449 25.1926C-2.01572 34.5028 2.90818 45.0604 21.7638 54.9254C37.0135 62.9074 60.5323 69.8607 81.6617 72.6428C103.863 75.5667 143.239 76.6682 177.229 72.173C205.165 68.4797 224.397 61.5669 232.854 52.1838C254.722 27.9221 234.665 13.2581 206.772 9.905C181.038 6.80698 129.148 5.38149 112.668 7.31319L111.553 6.56805C128.902 4.53106 181.139 5.9363 207.931 9.15985C236.924 12.6466 257.966 27.6629 235.679 52.3822C227.004 62.0083 207.221 69.1034 178.474 72.906C161.805 75.1091 143.862 76 127.179 76Z" fill="#065C67"/>
</svg>
