<svg width="260" height="89" viewBox="0 0 260 89" fill="none" xmlns="http://www.w3.org/2000/svg">
<path d="M134.965 89C115.678 89 97.9728 87.7288 85.355 85.8439C62.3634 82.415 36.8667 73.8817 20.3914 64.1114C-0.00288445 52.0177 -5.32046 39.0571 5.43765 27.6162C18.1015 14.1539 50.6832 7.35944 75.8111 4.03284C102.937 0.433481 127.45 0.00487057 127.681 0L127.834 0.974115C127.588 0.978985 103.536 1.40273 76.9022 4.94363C52.4352 8.18744 20.6988 14.8065 8.38844 27.8938C-2.13914 39.0912 3.08623 51.7888 23.0963 63.6535C39.2796 73.2534 64.2384 81.6162 86.6614 84.9623C110.222 88.4789 152.009 89.8036 188.08 84.3973C217.726 79.9553 238.136 71.6413 247.111 60.3562C270.318 31.1765 249.032 13.5402 219.432 9.50736C192.122 5.78137 137.055 4.06693 119.566 6.39019L118.382 5.49401C136.794 3.04411 192.229 4.7342 220.661 8.61118C251.43 12.8047 273.76 30.8648 250.108 60.5948C240.902 72.1722 219.908 80.7054 189.401 85.2789C171.712 87.9285 152.67 89 134.965 89Z" fill="#065C67"/>
</svg>
