<svg width="24" height="24" viewBox="0 0 24 24" fill="none" xmlns="http://www.w3.org/2000/svg">
<path d="M23.922 21.3431C23.922 22.0269 23.6504 22.6827 23.1669 23.1663C22.6834 23.6498 22.0277 23.9215 21.3439 23.9216H2.57813C1.89433 23.9215 1.23857 23.6498 0.755093 23.1663C0.271611 22.6827 -7.23144e-09 22.0269 0 21.3431L0 2.57812C0.000298134 1.89446 0.272017 1.23887 0.755445 0.755445C1.23887 0.272017 1.89446 0.000298134 2.57813 0L21.3439 0C22.0276 0.000198808 22.6832 0.271886 23.1667 0.755335C23.6501 1.23878 23.9218 1.89442 23.922 2.57812V21.3431Z" fill="#F5A800"/>
<path d="M20.2001 5.30248C19.8481 5.00189 19.3912 4.85335 18.9298 4.88949C18.4684 4.92563 18.0402 5.14351 17.7393 5.49523L10.2243 14.2841L6.18147 10.9091C6.02141 10.7714 5.8356 10.6669 5.63481 10.6017C5.43402 10.5365 5.22227 10.5118 5.01186 10.5291C4.80145 10.5465 4.59659 10.6055 4.40918 10.7027C4.22177 10.7999 4.05555 10.9333 3.92018 11.0954C3.78482 11.2574 3.683 11.4447 3.62066 11.6464C3.55832 11.8481 3.53669 12.0602 3.55704 12.2703C3.57738 12.4804 3.63929 12.6844 3.73917 12.8704C3.83905 13.0564 3.97491 13.2207 4.13884 13.3537L9.55534 17.8762C9.72236 18.0155 9.91626 18.1188 10.125 18.1799C10.3337 18.2409 10.5527 18.2583 10.7685 18.231C10.9973 18.2133 11.2203 18.1507 11.4249 18.0467C11.6294 17.9427 11.8115 17.7994 11.9606 17.625L20.3917 7.76248C20.692 7.41036 20.8403 6.95351 20.8041 6.49217C20.7679 6.03083 20.5501 5.6027 20.1986 5.30173" fill="white"/>
</svg>
