<svg width="749" height="321" viewBox="0 0 749 321" fill="none" xmlns="http://www.w3.org/2000/svg">
<path d="M151.225 1C151.225 1 165.767 22.4077 173.407 30.1242H702.088C729.299 30.1242 739.246 30.1242 745.714 46.5522C747.439 118.241 749.854 267.742 745.714 292.236C741.573 316.73 725.75 320.862 718.355 319.867H393.013C285.059 319.618 61.6077 319.269 31.4396 319.867C1.27155 320.464 -0.848145 281.782 1.86304 262.366C1.61658 199.39 1.27155 68.8064 1.86304 50.2868C2.45459 31.7672 21.8273 29.1286 31.4396 30.1242C67.9174 31.8666 142.056 34.306 146.788 30.1242C152.704 24.8969 151.225 1 151.225 1Z" stroke="white" stroke-width="2" stroke-linecap="round" stroke-linejoin="round" stroke-dasharray="10 10"/>
</svg>
