<svg width="46" height="31" viewBox="0 0 46 31" fill="none" xmlns="http://www.w3.org/2000/svg">
<rect x="0.5" y="0.5" width="44.7696" height="29.8065" rx="6.5" fill="#EFEFEF" stroke="#8D8D8D" stroke-linecap="square" stroke-linejoin="round" stroke-dasharray="5 8"/>
<path d="M17.1139 8.91319C17.9269 8.18123 20.1625 7.94741 21.1787 7.922H21.7259C22.2731 7.922 26.6506 7.922 29.2302 10.5143C31.8097 13.1067 30.9499 15.6228 30.4809 16.919C30.0118 18.2152 27.4323 22.1037 22.3513 22.4087C17.2702 22.7137 15.316 18.7489 14.5343 17.3002C13.7526 15.8515 14.1435 14.0216 14.5343 13.1067C14.9252 12.1918 15.316 12.573 15.316 11.8868C15.316 11.2006 16.0977 9.82814 17.1139 8.91319Z" fill="#FFBC28" fill-opacity="0.6"/>
<path d="M15.7615 13.2167C15.7615 13.2167 15.3553 11.9857 15.6801 11.012C16.0049 10.0383 17.2778 8.54992 18.9569 8.12045C20.636 7.69098 25.4299 7.87239 27.3244 9.52361C29.7888 11.6701 30.926 15.478 28.2725 18.799C25.619 22.12 22.2513 23.5189 18.5236 21.4618C12.9724 18.3982 14.7057 13.6462 14.8677 13.3306C15.0305 13.0159 15.5173 12.2709 15.8429 12.1283" stroke="black" stroke-opacity="0.5" stroke-miterlimit="10" stroke-linecap="round"/>
<g clip-path="url(#clip0_14_394)">
<path fill-rule="evenodd" clip-rule="evenodd" d="M22.5439 10.9431C22.6241 10.9431 22.7009 10.9749 22.7576 11.0316C22.8142 11.0883 22.8461 11.1651 22.8461 11.2453L22.8461 18.3718L24.7472 16.4701C24.8039 16.4134 24.8809 16.3815 24.9611 16.3815C25.0414 16.3815 25.1183 16.4134 25.1751 16.4701C25.2318 16.5268 25.2637 16.6038 25.2637 16.684C25.2637 16.7643 25.2318 16.8412 25.1751 16.8979L22.7578 19.3152C22.7298 19.3433 22.6964 19.3656 22.6597 19.3809C22.623 19.3961 22.5837 19.4039 22.5439 19.4039C22.5042 19.4039 22.4648 19.3961 22.4281 19.3809C22.3914 19.3656 22.3581 19.3433 22.33 19.3152L19.9128 16.8979C19.856 16.8412 19.8242 16.7643 19.8242 16.684C19.8242 16.6038 19.856 16.5268 19.9128 16.4701C19.9695 16.4134 20.0465 16.3815 20.1267 16.3815C20.2069 16.3815 20.2839 16.4134 20.3406 16.4701L22.2418 18.3718L22.2418 11.2453C22.2418 11.1651 22.2736 11.0883 22.3303 11.0316C22.3869 10.9749 22.4638 10.9431 22.5439 10.9431Z" fill="#035C67" fill-opacity="0.6"/>
</g>
<defs>
<clipPath id="clip0_14_394">
<rect width="9.66889" height="9.66889" fill="white" transform="translate(27.3779 10.3389) rotate(90)"/>
</clipPath>
</defs>
</svg>
