<svg width="317" height="68" viewBox="0 0 317 68" fill="none" xmlns="http://www.w3.org/2000/svg">
<path d="M274.712 8.97653C277.338 12.0929 279.774 15.2767 282.094 18.57C286.229 24.4384 289.487 30.771 292.723 37.1694C293.587 38.8911 294.452 40.6127 295.286 42.3516C295.821 43.4669 296.919 44.5753 297.995 45.1443C298.881 45.61 299.268 45.2272 298.82 44.2959C296.507 39.479 294.055 34.7318 291.529 30.0278C288.224 23.8714 284.236 18.1727 279.941 12.6835C278.929 11.3974 277.91 10.1157 276.859 8.86345C276.362 8.27901 274.968 6.60774 274.096 6.85656C273.223 7.10537 274.45 8.66041 274.712 8.97653Z" fill="black"/>
<path d="M305.923 59.4801C302.05 56.9663 298.147 54.5023 294.305 51.9388C290.764 49.5845 287.095 46.8891 285.148 42.913C285.132 43.2304 285.124 43.5434 285.108 43.8608C289.204 43.4829 294.61 46.0465 298.118 43.1495C301.147 40.6465 300.018 35.6028 302.762 32.882C302.119 32.4243 301.476 31.9667 300.833 31.5091C303.59 40.7022 304.276 50.2942 304.999 59.7266C305.056 60.533 307.166 62.1516 307.075 60.9929C306.336 51.3783 305.589 41.6624 302.785 32.2841C302.637 31.7854 301.416 30.3439 300.857 30.9111C298.146 33.6024 299.172 38.4506 296.407 41.0137C294.772 42.5313 292.256 42.4009 290.145 42.1959C287.927 41.9783 285.705 41.5293 283.499 41.7297C283.055 41.7731 283.363 42.4777 283.458 42.6775C285.573 47.0136 289.425 50.1658 293.263 52.827C297.478 55.7598 301.859 58.4473 306.163 61.2431C306.562 61.5018 307.065 61.562 307.087 60.9966C307.096 60.4073 306.338 59.7504 305.923 59.4801Z" fill="#020304"/>
<path d="M38.8122 7.53043C37.4265 11.363 35.8872 15.0645 34.1951 18.7203C31.1806 25.2358 27.3252 31.2233 23.4019 37.2248C22.3431 38.8342 21.2844 40.4437 20.1958 42.0358C19.497 43.0562 19.0862 44.5616 19.1314 45.7777C19.1714 46.7784 19.6963 46.922 20.2788 46.0683C23.294 41.657 26.1793 37.1601 28.9898 32.62C32.6687 26.6794 35.6101 20.3766 38.2164 13.9123C38.8244 12.3933 39.4249 10.8699 39.9835 9.33296C40.2412 8.61046 40.9919 6.56815 40.3401 5.93682C39.6883 5.30549 38.9549 7.14528 38.8122 7.53043Z" fill="black"/>
<path d="M10.6803 59.8114C10.921 55.2009 11.1031 50.5883 11.4024 45.9797C11.6707 41.7357 12.1707 37.211 14.6407 33.5369C14.3578 33.6817 14.0824 33.8308 13.7995 33.9756C16.1748 37.334 16.6576 43.2973 20.9208 44.8874C24.6027 46.2587 28.4065 42.7596 32.1345 43.7751C32.2094 42.9895 32.2843 42.204 32.3592 41.4184C25.7762 48.4026 17.8121 53.7923 10.0049 59.1346C9.33503 59.5873 8.98837 62.2241 9.9463 61.5659C17.9035 56.119 25.9442 50.614 32.664 43.4964C33.0217 43.1185 33.6596 41.3405 32.8887 41.1398C29.2027 40.1379 25.5168 43.4501 21.9147 42.3374C19.7831 41.6805 18.6378 39.436 17.7598 37.5053C16.8393 35.4756 16.1171 33.3267 14.8406 31.5166C14.5814 31.1544 14.1248 31.7727 13.9994 31.9553C11.3017 35.9549 10.4981 40.8674 10.1125 45.5218C9.6796 50.6377 9.54282 55.7758 9.27381 60.9014C9.24898 61.3758 9.44837 61.8416 9.94917 61.5782C10.4638 61.2909 10.6537 60.3061 10.6803 59.8114Z" fill="#020304"/>
</svg>
