<svg width="74" height="400" viewBox="0 0 74 400" fill="none" xmlns="http://www.w3.org/2000/svg">
<path d="M2.3185 109.929C6.62226 109.415 10.8865 109.044 15.1903 108.784C22.8601 108.319 30.4904 108.567 38.17 108.852C40.2331 108.932 42.2961 109.013 44.3592 109.118C45.6819 109.186 47.3007 108.901 48.4063 108.437C49.3144 108.053 49.1664 107.675 48.0608 107.62C42.3455 107.329 36.6203 107.149 30.8951 107.031C23.403 106.877 15.9701 107.31 8.56685 108.01C6.82955 108.177 5.09225 108.35 3.36483 108.554C2.5554 108.654 0.255455 108.92 0.01855 109.551C-0.218354 110.183 1.88417 109.979 2.3185 109.929Z" fill="#5E5E5E"/>
<path d="M2.3185 244.929C6.62226 244.415 10.8865 244.044 15.1903 243.784C22.8601 243.319 30.4904 243.567 38.17 243.852C40.2331 243.932 42.2961 244.013 44.3592 244.118C45.6819 244.186 47.3007 243.901 48.4063 243.437C49.3144 243.053 49.1664 242.675 48.0608 242.62C42.3455 242.329 36.6203 242.149 30.8951 242.031C23.403 241.877 15.9701 242.31 8.56685 243.01C6.82955 243.177 5.09225 243.35 3.36483 243.554C2.5554 243.654 0.255455 243.92 0.01855 244.551C-0.218354 245.183 1.88417 244.979 2.3185 244.929Z" fill="#5E5E5E"/>
<path d="M2.3185 391.929C6.62226 391.415 10.8865 391.044 15.1903 390.784C22.8601 390.319 30.4904 390.567 38.17 390.852C40.2331 390.932 42.2961 391.013 44.3592 391.118C45.6819 391.186 47.3007 390.901 48.4063 390.437C49.3144 390.053 49.1664 389.675 48.0608 389.62C42.3455 389.329 36.6203 389.149 30.8951 389.031C23.403 388.877 15.9701 389.31 8.56685 390.01C6.82955 390.177 5.09225 390.35 3.36483 390.554C2.5554 390.654 0.255455 390.92 0.01855 391.551C-0.218354 392.183 1.88417 391.979 2.3185 391.929Z" fill="#5E5E5E"/>
<path d="M4.45409 2.929C10.8658 2.4151 17.2187 2.0436 23.6305 1.78355C35.0569 1.31918 46.4245 1.56685 57.8656 1.85166C60.9391 1.93215 64.0126 2.01264 67.0861 2.1179C69.0567 2.18601 71.4684 1.9012 73.1155 1.43682C74.4684 1.05294 74.2478 0.675255 72.6008 0.619531C64.0861 0.328525 55.5568 0.148968 47.0274 0.0313269C35.8657 -0.123464 24.7922 0.30995 13.7629 1.0096C11.1746 1.17678 8.58642 1.35014 6.0129 1.55446C4.80703 1.65353 1.38058 1.91977 1.02764 2.55132C0.674697 3.18286 3.80703 2.97854 4.45409 2.929Z" fill="#5E5E5E"/>
<path d="M2.92902 373.499C2.41511 339.157 2.04361 305.13 1.78356 270.788C1.31918 209.586 1.56685 148.699 1.85166 87.4187C1.93215 70.9564 2.01264 54.4942 2.1179 38.0319C2.18601 27.4772 1.90119 14.5594 1.43682 5.73755C1.05293 -1.50897 0.675242 -0.327454 0.619517 8.49442C0.328512 54.1003 0.148956 99.785 0.0313163 145.47C-0.123472 205.254 0.309946 264.565 1.00961 323.64C1.17678 337.503 1.35015 351.366 1.55447 365.15C1.65354 371.609 1.91978 389.962 2.55133 391.852C3.18288 393.742 2.97855 376.965 2.92902 373.499Z" fill="#5E5E5E"/>
<path d="M62.3217 108.922C58.9563 110.638 55.6135 112.396 52.2256 114.069C49.1087 115.615 45.6981 117.112 42.0843 116.865C42.3026 117.006 42.521 117.14 42.7393 117.281C44.1472 114.224 48.1751 111.443 47.5577 107.771C47.0232 104.602 42.9878 103.338 42.1822 100.281C41.5949 100.549 41.0077 100.817 40.4204 101.086C48.0622 102.893 55.1392 106.331 62.1184 109.678C62.7132 109.967 64.7234 109.134 63.8651 108.725C56.7504 105.315 49.5604 101.869 41.7681 100.02C41.354 99.9208 39.8332 100.196 40.0064 100.824C40.8044 103.846 44.6591 105.103 45.3443 108.11C45.7508 109.889 44.629 111.619 43.6202 113.031C42.5586 114.514 41.3314 115.905 40.571 117.549C40.4204 117.881 41.0453 117.952 41.226 117.966C45.1636 118.241 48.9731 116.801 52.4289 115.17C56.2309 113.384 59.9275 111.379 63.6693 109.473C64.0157 109.296 64.2641 108.965 63.8726 108.717C63.4585 108.47 62.6831 108.739 62.3217 108.922Z" fill="#5E5E5E"/>
<path d="M62.3217 243.922C58.9563 245.638 55.6135 247.396 52.2256 249.069C49.1087 250.615 45.6981 252.112 42.0843 251.865C42.3026 252.006 42.521 252.14 42.7393 252.281C44.1472 249.224 48.1751 246.443 47.5577 242.771C47.0232 239.602 42.9878 238.338 42.1822 235.281C41.5949 235.549 41.0077 235.817 40.4204 236.086C48.0622 237.893 55.1392 241.331 62.1184 244.678C62.7132 244.967 64.7234 244.134 63.8651 243.725C56.7504 240.315 49.5604 236.869 41.7681 235.02C41.354 234.921 39.8332 235.196 40.0064 235.824C40.8044 238.846 44.6591 240.103 45.3443 243.11C45.7508 244.889 44.629 246.619 43.6202 248.031C42.5586 249.514 41.3314 250.905 40.571 252.549C40.4204 252.881 41.0453 252.952 41.226 252.966C45.1636 253.241 48.9731 251.801 52.4289 250.17C56.2309 248.384 59.9275 246.379 63.6693 244.473C64.0157 244.296 64.2641 243.965 63.8726 243.717C63.4585 243.47 62.6831 243.739 62.3217 243.922Z" fill="#5E5E5E"/>
<path d="M62.3217 390.922C58.9563 392.638 55.6135 394.396 52.2256 396.069C49.1087 397.615 45.6981 399.112 42.0843 398.865C42.3026 399.006 42.521 399.14 42.7393 399.281C44.1472 396.224 48.1751 393.443 47.5577 389.771C47.0232 386.602 42.9878 385.338 42.1822 382.281C41.5949 382.549 41.0077 382.817 40.4204 383.086C48.0622 384.893 55.1392 388.331 62.1184 391.678C62.7132 391.967 64.7234 391.134 63.8651 390.725C56.7504 387.315 49.5604 383.869 41.7681 382.02C41.354 381.921 39.8332 382.196 40.0064 382.824C40.8044 385.846 44.6591 387.103 45.3443 390.11C45.7508 391.889 44.629 393.619 43.6202 395.031C42.5586 396.514 41.3314 397.905 40.571 399.549C40.4204 399.881 41.0453 399.952 41.226 399.966C45.1636 400.241 48.9731 398.801 52.4289 397.17C56.2309 395.384 59.9275 393.379 63.6693 391.473C64.0157 391.296 64.2641 390.965 63.8726 390.717C63.4585 390.47 62.6831 390.739 62.3217 390.922Z" fill="#5E5E5E"/>
</svg>
