<svg width="25" height="25" viewBox="0 0 25 25" fill="none" xmlns="http://www.w3.org/2000/svg">
<path d="M21.2656 24.3593C22.12 25.2136 23.5051 25.2136 24.3595 24.3593C25.2135 23.5049 25.2135 22.1198 24.3595 21.2654L15.5939 12.4999L24.3592 3.73448C25.2135 2.88019 25.2135 1.4951 24.3592 0.640772C23.5051 -0.213523 22.12 -0.213523 21.2656 0.640772L12.5001 9.40639L3.7345 0.640743C2.88017 -0.213581 1.49508 -0.213581 0.640776 0.640743C-0.213553 1.49504 -0.213553 2.88013 0.640776 3.73445L9.40624 12.4999L0.640747 21.2654C-0.213582 22.1198 -0.213582 23.5049 0.640747 24.3593C1.49505 25.2136 2.88014 25.2136 3.73447 24.3593L12.5001 15.5938L21.2656 24.3593Z" fill="#0A0000"/>
</svg>
