<svg width="45" height="40" viewBox="0 0 45 40" fill="none" xmlns="http://www.w3.org/2000/svg">
<path d="M23.5339 39.7267C22.5495 39.7267 21.5337 39.6861 20.4841 39.6072C10.6297 38.8632 5.67215 33.3173 3.24854 28.7948C3.18322 28.6731 3.12015 28.5513 3.05708 28.4296V32.6837H2.83184V27.9787C0.595187 23.3864 0.329401 19.1164 0.327148 19.0713L0.552391 19.0578C0.554643 19.1006 0.802409 23.0685 2.83409 27.4557V17.9915C2.83409 11.2055 4.25762 6.77328 7.31191 4.04313C10.7987 0.925216 16.4139 -0.00362055 25.5182 1.03118C32.6539 1.84278 37.7849 4.36101 40.7716 8.51597C43.0533 11.6902 44.0985 15.843 43.8822 20.8636C43.6975 25.1313 42.515 31.0718 37.9426 35.1343C34.5054 38.1869 29.6672 39.7267 23.5339 39.7267ZM3.05934 27.9291C3.18322 28.1839 3.31611 28.4409 3.45351 28.6956C5.85009 33.164 10.7536 38.6445 20.5021 39.3817C28.0364 39.9521 33.8544 38.4642 37.7939 34.963C42.3078 30.9523 43.4745 25.075 43.6592 20.8501C44.1615 9.27572 38.0507 2.68144 25.4957 1.25437C16.4612 0.226334 10.9 1.13713 7.46282 4.20771C4.45809 6.89502 3.05934 11.2732 3.05934 17.9915V27.9291Z" fill="black"/>
<path d="M21.4086 1.03867C27.6071 0.712221 34.1861 3.48702 36.7009 4.91522C37.7204 5.93538 39.9225 8.17972 40.575 8.99584C41.3906 10.016 43.4296 13.6885 43.0218 21.6456C42.614 29.6028 39.5555 33.0713 35.4776 36.1317C31.3996 39.1921 23.4476 40.0082 14.8839 38.172C6.32023 36.3357 2.65002 27.9705 2.44612 26.9504C2.24223 25.9302 2.24223 18.5852 3.66951 10.22C5.08948 1.89766 13.573 1.45111 21.2895 1.04494L21.4086 1.03867Z" fill="#FFBC28"/>
<path d="M41.4896 30.5876L41.85 30.0759C41.6428 30.8086 41.3387 31.273 41.7216 30.8086C41.6 30.6936 41.8928 30.1616 42.1203 29.6024C42.1788 29.4627 42.2374 29.3251 42.2937 29.1944C42.341 29.0614 42.3838 28.9351 42.4176 28.8224C42.4807 28.5992 42.5032 28.4346 42.4401 28.3895C42.5122 28.2723 42.5708 28.1506 42.6361 28.0288C42.5955 28.137 42.6068 28.1618 42.5663 28.2701C42.9582 27.5667 42.5618 27.6478 42.8861 26.6942C43.0077 26.3628 43.1023 26.1328 43.0821 26.3763C43.1204 26.1148 43.1654 25.8555 43.1992 25.5963C43.2532 25.3753 43.2938 25.4407 43.2397 25.6617C43.3118 25.2694 43.3997 24.8794 43.456 24.4848L43.4627 24.4961C43.4447 24.318 43.4447 23.928 43.4357 23.7386C43.5213 23.4455 43.447 23.8942 43.4943 23.822L43.5145 23.1592C43.6317 22.9045 43.6294 23.4545 43.5528 23.9054C43.938 23.3373 43.5731 23.3553 43.8817 22.05C43.8794 22.2597 43.8682 22.4671 43.8569 22.6768C43.9673 22.4851 44.0191 22.2664 44.0596 22.0049C44.1024 21.7457 44.1384 21.4458 44.2105 21.0941C44.1542 21.2632 43.8299 22.4896 43.8141 21.766C43.8569 21.5676 43.8839 21.3015 43.8434 20.9115C43.9537 20.9138 43.9447 20.535 43.9515 20.0616L44.0957 20.0977C44.0664 19.5836 43.9853 19.6242 43.9245 19.3221C43.938 18.754 44.0371 18.6323 44.1294 18.4925C44.1204 17.5749 43.9785 19.1305 43.9042 18.0484C43.9132 17.6674 43.8907 17.3427 43.8389 17.0045C43.7961 16.6641 43.7082 16.3102 43.6114 15.866C43.5753 15.3317 43.7127 15.9449 43.724 15.7511L43.5348 15.3024C43.519 15.1874 43.5596 15.219 43.5798 15.2348C43.4717 14.8493 43.4357 15.2258 43.278 14.6238C43.1046 14.4953 43.2262 13.3185 42.814 12.6264C42.7915 12.4325 42.9289 12.6873 42.9627 12.6151C42.5077 11.6412 42.582 11.7742 42.1023 11.0325C42.0279 10.7958 41.9581 10.5568 41.877 10.3201C41.9491 10.5906 41.8748 10.5816 41.7464 10.4418C41.609 10.3065 41.4085 10.0495 41.2238 9.80831C41.2666 10.0022 41.3004 10.1668 41.3319 10.2727L41.0774 9.87144L40.8026 9.48593C40.7643 9.37546 40.8544 9.43182 40.9873 9.53552C40.9423 9.48593 40.9017 9.44084 40.8679 9.40477C40.7395 9.08463 40.8995 9.19059 41.0954 9.36193C41.1292 9.47691 41.163 9.59188 41.1968 9.70461C41.3905 9.86467 41.5752 10.0225 41.627 9.93682C41.582 9.88947 41.5144 9.78802 41.4446 9.67305C41.4941 9.71813 41.5324 9.74293 41.5301 9.70912C41.5301 9.67079 41.4513 9.59865 41.3364 9.48142L41.3612 9.20863L41.2779 9.1951C41.1855 9.00122 41.0887 8.80959 40.9783 8.62698C40.8702 8.44211 40.7688 8.25048 40.6562 8.06787C40.4828 7.90781 40.3116 7.75901 40.1381 7.60796C39.967 7.45466 39.7733 7.31939 39.5818 7.15933C39.3926 6.99926 39.1831 6.83919 38.9556 6.65884C38.8453 6.5664 38.7281 6.46946 38.6065 6.36801C38.4804 6.27107 38.3475 6.16511 38.2123 6.05239C38.5524 6.20344 38.3993 5.96221 38.5051 5.87203C38.602 6.05915 38.8205 6.23274 39.0637 6.44917C39.1876 6.55513 39.3205 6.67011 39.4579 6.78734C39.5886 6.91134 39.7147 7.05111 39.8318 7.19765C39.5863 6.88879 39.6922 6.91134 39.7755 6.97221L39.5277 6.74L39.2687 6.52131C39.093 6.37703 38.9286 6.22598 38.7484 6.09297C38.8498 6.02984 38.5975 5.83821 38.3677 5.56542C38.4218 5.90585 37.5163 5.01985 37.0208 4.77636C37.0298 4.73578 37.0704 4.71775 37.1785 4.76284C37.2843 4.80567 37.4578 4.90712 37.71 5.12806C37.4803 4.82371 37.2393 4.7448 37.0095 4.66364C36.7775 4.58474 36.5545 4.50358 36.2888 4.25784C36.4262 4.34351 36.4937 4.39762 36.5681 4.39987C36.2144 4.25333 35.4599 3.72128 35.6761 3.78215C35.7234 3.80695 35.7707 3.834 35.8158 3.86331C35.5883 3.72128 35.2909 3.5567 34.9756 3.38311C34.658 3.21403 34.3089 3.06298 33.989 2.91869C33.3358 2.65718 32.775 2.48358 32.6669 2.54896C32.6669 2.52191 32.8808 2.38213 32.9552 2.37311C32.2772 2.34831 31.6172 2.32577 30.9573 2.35733C31.1668 2.24912 30.6667 1.68325 31.5429 1.8591C31.3064 1.76216 31.0136 1.63591 30.4798 1.54122C30.6419 1.6066 30.8266 1.89517 30.5969 1.83881C30.0225 1.48937 30.1915 1.62914 29.4527 1.27294C29.6959 1.37664 29.3558 1.54122 28.9616 1.45329C29.0315 1.4285 28.9842 1.19854 29.1373 1.20305L28.0877 1.23687C28.3445 1.24588 28.1755 1.03397 27.9638 0.918989C28.0584 0.986622 27.0944 0.763431 26.8196 0.743141L27.2363 0.8739C26.6709 0.752159 26.3759 0.804011 26.0853 0.860373C25.7925 0.916734 25.5042 0.968587 24.9433 0.896444C25.0852 0.858118 25.3172 0.612383 24.7451 0.51995C24.4658 0.6214 23.5175 1.01593 22.5197 1.04073L22.335 0.950551L21.5669 0.986622C22.049 0.813029 23.4207 0.508678 24.173 0.427517C23.7518 0.328321 24.0626 0.321558 23.4207 0.274214C23.1999 0.18629 23.7811 0.195308 23.968 0.215598C23.4725 0.150219 22.9747 0.100621 22.4769 0.0420049C22.5332 0.190799 21.3192 0.123165 21.371 0.249415C21.9161 0.22687 22.4611 0.208835 23.004 0.20658C23.031 0.285486 22.7877 0.37341 22.4071 0.425263C22.0264 0.481624 21.5084 0.517695 20.9836 0.472606C20.7223 0.386937 21.202 0.202071 21.184 0.152473C21.0444 0.188545 20.1727 0.213344 20.0758 0.170509L20.5286 0.10513C19.9362 0.0262237 19.56 0.269705 18.8505 0.12542C18.7266 0.120911 18.5442 0.0690584 18.3865 0.0329871C18.2266 0.00142469 18.0937 -0.0188654 18.0734 0.0262237C18.4789 0.188545 18.5554 0.725105 18.2964 0.858118C18.2131 0.851355 17.0261 0.718342 16.7422 0.664235C16.3323 0.553767 17.3279 0.305776 16.981 0.208835C16.9675 0.251669 16.7468 0.314794 16.6567 0.337339C16.3976 0.317049 16.7558 0.202071 16.1972 0.256178C16.1138 0.404972 15.0597 0.35312 15.9426 0.404972C15.4021 0.506423 15.3593 0.423008 14.7196 0.510932C14.9336 0.585329 14.1925 0.916734 13.6699 1.06102C13.6947 1.01593 13.5663 0.988877 13.5033 0.977605C12.4086 1.17149 11.8094 1.27068 10.8206 1.6066C10.7193 1.6066 10.2282 1.74412 10.4062 1.6066C10.2733 1.6855 10.1607 1.77794 9.87011 1.91997C9.24168 2.05974 10.5233 1.59983 10.0233 1.65169C10.0233 1.75765 9.29349 2.09807 8.92635 2.38889C9.02545 2.42046 9.25069 2.28294 9.52324 2.14316C9.79578 2.00564 10.0863 1.80724 10.2958 1.70579C10.3319 1.79146 10.1809 1.95153 9.91516 2.17247C9.78227 2.28294 9.61559 2.3934 9.43314 2.52642C9.25295 2.66394 9.05023 2.80822 8.82949 2.95476C8.14926 3.44849 8.45559 3.04945 8.34747 3.1509C8.00285 3.35155 7.79788 3.55445 7.63571 3.70775C7.55687 3.78666 7.4893 3.85655 7.43524 3.92418C7.38344 3.99632 7.33839 4.0617 7.29334 4.12483C7.2055 4.25333 7.12216 4.37056 6.99377 4.50358C6.86763 4.63884 6.71897 4.81018 6.46895 5.01985C6.03649 5.32871 6.26849 4.87556 6.12659 4.90487C6.34958 4.63659 6.54554 4.44947 6.73023 4.29617C6.92394 4.15188 7.09963 4.03465 7.27307 3.87458L6.80456 4.22177C6.94421 4.04817 7.25955 3.69423 7.49381 3.57699C7.442 3.59954 7.36767 3.64463 7.27757 3.70324C7.19198 3.76862 7.09062 3.85204 6.978 3.94898C6.86538 4.04592 6.73699 4.15413 6.6086 4.27587C6.48472 4.40438 6.35408 4.5419 6.21894 4.68619C6.07929 4.82371 5.95315 4.98377 5.82476 5.14384C5.70088 5.30391 5.55898 5.45496 5.44635 5.61953C5.21661 5.94643 4.98461 6.24627 4.81568 6.5123C4.73909 6.72647 4.58593 7.08042 4.71882 6.94515L4.90127 6.59571C5.1648 6.33419 4.65125 7.30136 4.93731 6.89555C4.82919 7.13453 4.75937 7.40732 4.65125 7.69138C4.53638 7.97093 4.43727 8.28205 4.27284 8.6112L4.09265 8.6901C4.1377 8.6901 4.34943 8.27528 4.38772 8.06787C4.35844 8.22118 4.20978 8.46466 4.07238 8.71941C3.94399 8.97642 3.84038 9.25146 3.87191 9.43858L4.12418 8.98093C4.07913 9.24019 4.02958 9.53101 3.97778 9.83537C3.93723 10.142 3.87642 10.4576 3.77281 10.7642C3.98003 10.514 3.79758 10.6154 4.07013 10.2164C3.92822 10.3832 4.02057 9.97965 4.1422 9.62119C4.26383 9.26273 4.3742 8.92907 4.17374 9.1951C4.25482 9.09816 4.31564 9.00573 4.36744 8.90878C4.42376 8.81635 4.47331 8.72166 4.52061 8.62247C4.62197 8.42858 4.70756 8.20539 4.91253 7.96868C4.86298 7.96642 4.74135 8.12423 4.99137 7.65531C4.98911 7.62825 4.99812 7.56964 5.00713 7.53357C5.01614 7.52004 5.01839 7.51553 5.02515 7.502C5.01839 7.51102 5.01389 7.51778 5.00713 7.5268C5.01164 7.502 5.01164 7.49975 5.00038 7.53582C4.9283 7.64178 4.86073 7.72294 4.82018 7.74999C4.8337 7.61022 4.92154 7.33968 5.04542 7.08493C5.16931 6.83017 5.3022 6.57542 5.35175 6.43564C5.54997 6.18315 5.32022 6.57317 5.45987 6.45593L5.63105 6.05013C5.68511 6.06141 5.83828 5.91036 5.92837 5.84047C6.02748 5.77734 6.05 5.77734 5.86981 6.10199C5.98919 5.91487 6.13109 5.74578 6.27074 5.5767C6.54554 5.29714 6.93521 4.93869 7.13342 4.67266C7.37668 4.48329 7.64021 4.0617 7.49155 4.30518C7.60868 4.17668 7.73932 4.06396 7.87221 3.95123C8.00285 3.83851 8.13349 3.72128 8.26639 3.61081L8.28891 3.62659C8.5074 3.48907 8.71912 3.33802 8.93536 3.18472C9.16285 3.04494 9.39485 2.90517 9.6291 2.76088C9.87687 2.63689 10.1291 2.51514 10.3949 2.40242C10.6675 2.30773 10.949 2.22657 11.2418 2.16345C11.404 2.09807 11.5707 2.03269 11.7689 1.96506C11.868 1.93124 11.9739 1.89517 12.091 1.8591C12.2104 1.82753 12.341 1.80048 12.4852 1.77117L12.6181 1.82753C12.7262 1.79372 12.8636 1.7599 13.01 1.72834C13.1586 1.70129 13.3208 1.681 13.4717 1.65845C13.7758 1.61562 14.0461 1.56376 14.1362 1.51191C14.3997 1.59983 14.9381 1.51191 15.5259 1.45329C16.1093 1.37213 16.74 1.31126 17.1409 1.30676L17.1657 1.18952C17.7221 1.18276 18.2514 1.12189 18.9474 1.08807L18.9046 0.986622C19.506 0.903207 20.4452 1.07906 21.3912 1.1264C21.3237 1.16022 21.0849 1.13542 20.916 1.10385C22.0309 1.39468 23.3171 1.09258 24.3284 1.37213C24.5874 1.36312 24.7721 1.39468 24.9478 1.43751C24.923 1.43526 24.9028 1.43526 24.8848 1.43526C24.9118 1.43751 24.9501 1.44202 24.9906 1.44653C25.101 1.47359 25.2136 1.51191 25.3352 1.54347C25.2316 1.50515 25.1325 1.47133 25.0469 1.45104C25.2429 1.47359 25.5402 1.50064 25.833 1.51417L25.9411 1.63816C25.9659 1.64041 25.9839 1.64267 26.0087 1.64492C26.288 1.72158 26.2452 1.62463 26.1033 1.52318C26.252 1.52544 26.3894 1.52093 26.4975 1.50966C26.7002 1.72158 27.2656 1.5818 27.5471 1.82077C27.7611 1.74863 28.9977 2.05524 29.1959 1.89742C29.2004 1.92448 29.2815 1.95604 29.1261 1.91997C29.4391 2.02142 29.7477 2.12738 30.0473 2.14767L30.1442 2.31675C30.3919 2.31224 30.6329 2.33253 30.8807 2.34155C31.2704 2.55122 31.4235 2.65041 30.9843 2.62336C31.5046 2.69325 31.7051 2.75637 31.8898 2.80822C32.0745 2.86008 32.2412 2.8984 32.6826 2.98407L32.6106 3.04945C32.9011 3.16894 33.4124 3.25461 33.5588 3.39664C33.703 3.50711 33.9643 3.66492 34.3089 3.84302C34.4823 3.92869 34.667 4.03916 34.863 4.15188C35.0589 4.26686 35.2752 4.37733 35.4869 4.51259C36.3496 5.02435 37.2596 5.72098 37.8677 6.37477C37.8272 6.1606 37.9623 6.32292 38.129 6.52357C38.3024 6.71971 38.4781 6.98122 38.5772 6.93388C38.6065 7.05337 38.7529 7.25401 38.5142 7.08493C39.1921 7.69363 39.3408 8.15805 39.8543 8.55033C39.8679 8.66981 39.6629 8.45113 39.6899 8.54582C39.7462 8.59541 39.9084 8.74195 39.9264 8.8434C39.9444 8.9426 39.8161 8.75999 39.7034 8.66756C40.2373 9.40927 40.44 9.39349 40.6269 9.35742C40.8004 9.81057 40.931 10.0022 41.19 10.2569C41.2148 10.4328 41.2869 10.7033 40.9986 10.1983C41.0346 10.2727 41.1067 10.4215 41.1945 10.6041C41.2846 10.7867 41.3702 11.0099 41.4671 11.2196C41.6563 11.6412 41.814 12.0357 41.8928 12.0244C41.9018 12.1304 42.0347 12.4618 42.0797 12.5362C42.1991 12.8856 42.2464 13.0818 42.3005 13.2734C42.3523 13.465 42.4131 13.6544 42.5009 14.0061L42.4762 13.8055C42.7104 14.0422 42.6654 14.3826 42.7938 14.9552L42.7735 14.9417C42.8388 15.6135 42.8613 15.7556 42.9019 15.8953C42.9379 16.0351 42.9649 16.1749 42.9694 16.8422L43.0708 16.7588C43.1924 16.8084 43.1834 17.1082 43.1654 17.487C43.1361 17.868 43.0956 18.3257 43.1451 18.7112L43.1992 18.4294C43.2938 18.8532 42.9041 19.6129 42.8636 20.03C42.8388 20.1202 42.8388 19.8857 42.8208 19.7572C42.6564 20.8506 42.9627 19.9015 42.9672 20.7266C42.8816 20.8732 42.7847 20.5237 42.7397 21.0716C42.6744 21.3376 42.8681 22.6903 42.6045 23.4162C42.6856 23.2607 42.769 23.1051 42.7577 23.4884C42.7307 23.7814 42.6023 24.1624 42.5009 24.5367C42.3906 24.9109 42.296 25.2761 42.3275 25.5557C42.2937 25.6233 42.2712 25.6481 42.2577 25.6459C42.2036 26.0923 41.9581 27.0662 41.9604 27.3525C41.8387 27.4224 41.7329 27.623 41.636 27.8846C41.5347 28.1438 41.431 28.4594 41.3387 28.7683C41.2328 29.0704 41.127 29.3612 41.0346 29.5686C40.9355 29.7715 40.8387 29.8865 40.7643 29.8459C40.6607 30.0488 40.5684 30.2562 40.458 30.4546L40.1246 31.0498L40.1134 31.0002C39.6359 31.7261 39.5232 32.0192 39.4016 32.3146C39.262 32.4634 39.325 32.3258 39.3205 32.301C38.4894 33.2704 38.4105 33.3516 37.7776 34.2399L37.6177 34.2354C37.5298 34.3526 37.1785 34.6547 36.6964 34.9793C36.5793 35.065 36.4554 35.1529 36.3293 35.2454C36.1987 35.3333 36.0658 35.4235 35.9329 35.5136C35.8 35.6061 35.6671 35.7008 35.5387 35.7999C35.4103 35.8969 35.2752 35.9848 35.1513 36.0818C35.1558 36.0637 35.1648 36.0322 35.2414 35.9668C34.9576 36.1742 34.6377 36.3884 34.2796 36.5439C33.9282 36.7108 33.5723 36.8708 33.2277 36.9903C32.5542 37.2653 31.9686 37.4457 31.7974 37.7343C31.5204 37.8831 31.2253 37.9868 30.9393 38.1175C32.1105 37.7906 30.8176 38.3385 31.3177 38.2573C30.8627 38.4264 30.0923 38.4985 30.6532 38.3114L30.7478 38.3047C30.9032 38.0634 29.2635 38.6067 29.2635 38.458C26.9299 38.9607 24.5829 38.9878 22.353 38.9314L22.6076 39.1005L21.8237 39.0802C21.6187 39.0261 21.5534 38.9472 22.1098 38.963C21.8215 38.875 21.1728 38.9945 21.1547 39.0351C20.0668 38.9088 21.5917 38.866 21.2561 38.8435L20.8011 38.8299L20.9025 38.8547C20.7178 38.8773 20.6142 38.9066 20.4745 38.9246C20.3349 38.9427 20.1569 38.9539 19.8258 38.9088C19.4091 38.8299 19.6208 38.7848 19.4564 38.76C19.4587 38.7488 19.4046 38.7375 19.2041 38.7285L18.7199 38.6699C18.5577 38.6518 18.3955 38.6293 18.2379 38.5955C18.3595 38.6609 18.4811 38.7262 18.6073 38.7803C18.1658 38.7916 17.6973 38.6225 18.1207 38.8502C17.9653 38.7646 17.6612 38.6789 17.2896 38.5955C16.9157 38.5233 16.481 38.4061 16.053 38.3024C15.839 38.2505 15.625 38.2009 15.4246 38.1513C15.2241 38.1017 15.0394 38.0364 14.8727 37.9868C14.5416 37.8808 14.2916 37.7974 14.1993 37.7501C13.8907 37.7117 13.6069 37.608 13.3051 37.5043C13.1541 37.4502 13.001 37.3916 12.8433 37.3285C12.7645 37.2969 12.6834 37.2631 12.6 37.2315C12.5212 37.1932 12.4379 37.1526 12.3545 37.112C12.5099 37.2157 12.5527 37.3984 11.9761 37.103C12.1473 37.0174 11.895 36.8595 11.5572 36.6724C11.3837 36.5845 11.2035 36.4628 11.0391 36.3478C10.8747 36.2328 10.7283 36.1133 10.6449 36.0051C10.726 36.093 10.6675 36.084 10.5413 36.0276C10.4152 35.9735 10.2215 35.8698 10.0435 35.7571C9.68541 35.5384 9.3453 35.3423 9.59081 35.6286C9.15835 35.3107 9.62685 35.5159 9.32953 35.2341C8.22584 34.5916 7.18522 33.4463 6.12884 32.3033C6.08154 32.31 6.21218 32.549 5.94414 32.3348L5.74367 31.9606L5.56348 31.5728C5.36076 31.3429 5.20084 31.4939 4.97109 30.9574C4.98911 31.043 5.0184 31.1715 4.88775 31.007C4.05436 29.7061 3.23673 28.3602 2.56551 26.9219C1.89203 25.4881 1.38749 23.9573 1.18252 22.3972C1.21631 22.8255 1.13072 22.5573 1.05639 22.2394C1.08567 22.4491 0.959532 22.2574 0.916736 22.3115C0.862677 21.8719 0.817629 21.4323 0.786095 20.9949C0.58563 20.7875 0.547338 19.6107 0.398679 19.4912C0.421203 19.6287 0.450484 19.764 0.477513 19.9015C0.35363 19.6287 0.28831 19.8316 0.225242 20.0999C0.166679 20.3659 0.112621 20.6996 0 20.6771C0.14866 20.9746 0.155417 21.3962 0.195961 21.8697C0.216232 22.1064 0.247766 22.3544 0.304077 22.6024C0.36264 22.8503 0.452737 23.0983 0.58563 23.3328C0.601396 23.5673 0.468504 23.1615 0.452737 23.2945C0.610406 23.5267 0.718522 23.8265 0.85592 24.4037L0.813124 24.3473C1.08116 25.1364 1.26811 25.7022 1.47759 26.2884C1.58345 26.5815 1.68256 26.8836 1.82221 27.215C1.9551 27.5486 2.10151 27.9184 2.30873 28.3422L2.34027 28.1709C2.51145 28.5361 2.51821 28.6285 2.58353 28.8089C2.93941 29.1448 2.07223 27.7966 2.42586 28.0897C2.43712 28.2317 2.52271 28.4639 2.6466 28.7345C2.77949 29.0005 2.95292 29.3049 3.1196 29.607C3.47549 30.1976 3.82912 30.7657 3.84038 30.9799C4.19851 31.4917 3.83587 30.759 4.19401 31.2707L4.23455 31.4443L4.39447 31.521C4.63323 31.8501 4.6963 32.0643 4.66251 32.1117C4.6062 32.0282 4.47556 31.8997 4.40348 31.8186C4.53863 32.0508 4.77513 32.3439 4.99362 32.5964C5.22562 32.8376 5.43059 33.0382 5.48239 33.1171L5.113 32.6392C5.69637 33.2637 6.33831 33.9648 7.04783 34.5825C7.22577 34.7358 7.40371 34.8914 7.5794 35.0425C7.75509 35.1935 7.9488 35.3243 8.12899 35.4595C8.31369 35.5925 8.49388 35.7233 8.67407 35.8473C8.85877 35.9645 9.04572 36.0682 9.22592 36.1674L9.14934 36.057C9.69667 36.3636 9.89263 36.5191 10.1179 36.6612C10.3409 36.8054 10.5661 36.9813 11.1833 37.2834L11.1337 37.2721C11.404 37.3465 11.7464 37.4818 12.082 37.6486C11.7441 37.5539 12.6271 38.0319 12.1879 37.8988C13.4875 38.3182 12.8456 38.0792 13.7398 38.2325L13.9087 38.3745C14.2218 38.3948 14.2601 38.3655 14.9133 38.5481C14.3592 38.4489 15.2939 38.8029 14.6678 38.7037C14.8322 38.7803 14.9899 38.8457 15.1385 38.8976C15.2894 38.9427 15.4336 38.9787 15.5687 39.0103C15.8413 39.0712 16.0823 39.1095 16.2985 39.1433C16.7287 39.2222 17.0688 39.238 17.3684 39.4296C18.0577 39.3169 16.1701 39.0892 16.544 39.096C16.4021 39.0216 16.5418 39.0148 16.7738 39.0328C17.0058 39.0419 17.3279 39.0779 17.5441 39.1275C17.7671 39.1681 17.945 39.2741 18.2108 39.3936C18.4766 39.513 18.837 39.61 19.4114 39.6731C19.2965 39.6596 19.2875 39.6754 19.1749 39.6641C19.6006 39.7633 20.024 39.6889 20.5421 39.8016C20.8462 39.6776 21.2246 39.8467 21.3192 39.6731L20.2673 39.6573C20.5669 39.6506 20.8574 39.6032 21.1953 39.5762C21.5331 39.5514 21.9161 39.5469 22.4026 39.5987C22.326 39.6325 22.0332 39.6776 21.8327 39.7002C22.1188 39.7565 22.3846 39.6731 22.6819 39.7317C22.6391 39.8196 22.3192 39.8264 21.9296 39.8264C21.5399 39.8174 21.0827 39.7858 20.7606 39.8377C21.0646 39.9301 21.9746 39.7746 21.6458 39.9504C22.1143 39.725 22.781 40.0023 23.5603 39.8242L23.5108 39.9324C23.6347 39.9121 23.8892 39.8535 24.1167 39.849L23.709 40C24.0243 39.9301 24.3284 39.9459 24.6325 39.9707C24.7834 39.982 24.9343 39.9955 25.0875 40C25.2384 40 25.3893 39.9887 25.5402 39.9594C24.905 40.0158 24.8307 39.9662 24.8487 39.9301C24.8667 39.8873 24.9771 39.8309 24.7068 39.8016C25.0965 39.7588 25.3442 39.7317 25.5312 39.7362C25.7159 39.7407 25.8375 39.7678 25.9659 39.7994C26.2204 39.858 26.5042 39.9459 27.3782 39.7971C27.1417 39.8422 26.4817 39.849 26.8466 39.752C27.1822 39.7295 27.6259 39.7137 27.8399 39.743C28.9932 39.5311 27.6462 39.6731 28.1282 39.5221C28.5404 39.5784 28.6846 39.3642 29.1756 39.2312L29.2004 39.3372C30.5136 39.1095 29.4932 39.0419 30.6712 38.839C30.5226 38.9314 30.3717 39.0171 30.2185 39.1072C30.4167 39.0419 30.6194 38.9923 30.8131 38.9111L30.723 39.0689C31.0384 38.9246 31.2456 38.8435 31.4573 38.7758C31.669 38.7082 31.8853 38.6654 32.2051 38.5571C32.0339 38.5391 32.2209 38.3407 32.7682 38.1311C32.9687 38.0905 32.9259 38.1333 32.9304 38.1491C32.9349 38.1649 32.9867 38.1536 33.3651 37.9732C33.2187 38.1108 33.0633 38.2844 32.6826 38.3137C32.6601 38.3588 32.5317 38.4422 32.5069 38.4895C32.7232 38.4422 32.989 38.3655 33.221 38.2483C33.4552 38.1356 33.6737 38.0296 33.8111 37.962C33.7007 38.0071 33.5701 38.0589 33.498 38.0747L34.0251 37.7568C34.1985 37.6463 34.3629 37.5246 34.5319 37.4096C34.7211 37.3555 34.6017 37.457 34.4823 37.5562C34.6963 37.4277 34.8269 37.3104 35.1378 37.1233C35.1017 37.2496 35.1671 37.3172 34.7278 37.5968C34.8923 37.4885 35.0612 37.3893 35.2211 37.2744L35.6964 36.9249C35.7842 36.9182 36.2662 36.695 36.1536 36.8032C36.4352 36.6341 36.746 36.3726 37.0613 36.0818C37.3654 35.7752 37.7055 35.4798 38.0366 35.2003C38.0592 35.1574 38.1132 35.083 38.2394 34.95C38.5524 34.6908 38.8227 34.4202 39.1156 34.1429C39.2642 34.0054 39.3881 33.8408 39.5255 33.674C39.6561 33.5027 39.8003 33.3268 39.9152 33.1126L40.3679 32.7677C40.5796 32.4521 40.4265 32.5738 40.3116 32.6415C40.253 32.6753 40.2057 32.6956 40.2147 32.6437C40.2215 32.5896 40.2958 32.4701 40.4512 32.1973C40.8905 31.4331 40.7441 31.9944 40.9535 31.7577C41.0369 31.548 41.1315 31.255 41.2756 30.9393C41.4153 30.6192 41.5797 30.2653 41.8185 29.9316C41.7126 30.1818 41.591 30.3577 41.4896 30.5876ZM43.8096 21.784C43.8164 21.9621 43.8614 22.3206 43.7781 22.4423C43.679 22.2304 43.7465 22.0816 43.8096 21.784ZM40.699 8.57062C40.8004 8.66079 40.9062 8.83439 40.9896 9.05082C40.8972 8.91329 40.7891 8.75999 40.699 8.57062ZM6.54779 5.14159C6.55004 5.13482 6.55229 5.13031 6.5568 5.12581C6.83835 4.88683 6.73699 4.97025 6.54779 5.14159ZM6.02748 5.70295C5.99144 5.77283 6.00721 5.77734 6.03874 5.76156C6.05 5.70295 6.15587 5.56768 6.28426 5.41888C6.22795 5.44368 6.15136 5.50906 6.02748 5.70295ZM19.3573 38.7871L19.5082 38.8322C19.1591 38.8254 19.2582 38.8074 19.3573 38.7871Z" fill="black"/>
<path d="M23.2067 39.1018C22.2224 39.1018 21.2066 39.0612 20.1569 38.9823C10.3026 38.2383 5.345 32.6924 2.92139 28.1699C2.85607 28.0482 2.793 27.9264 2.72994 27.8047V32.0589H2.50469V27.3538C0.268038 22.7592 0.00225242 18.4893 0 18.4442L0.225242 18.4307C0.227495 18.4735 0.475261 22.4414 2.50695 26.8285V17.3643C2.50695 10.5784 3.93048 6.14614 6.98476 3.41599C10.4715 0.298081 16.0868 -0.630756 25.1911 0.406295C32.3268 1.2179 37.4578 3.73613 40.4445 7.88884C42.7262 11.0631 43.7713 15.2158 43.5551 20.2365C43.3704 24.5042 42.1879 30.4447 37.6154 34.5072C34.1782 37.5597 29.34 39.1018 23.2067 39.1018ZM2.73219 27.302C2.85607 27.5567 2.98896 27.8137 3.12636 28.0685C5.52294 32.5368 10.4265 38.0174 20.1749 38.7546C27.7093 39.325 33.5273 37.837 37.4668 34.3359C41.9806 30.3252 43.1474 24.4478 43.3321 20.223C43.8344 8.64859 37.7236 2.0543 25.1686 0.627231C16.1341 -0.400801 10.5729 0.509999 7.13567 3.58057C4.13094 6.26788 2.73219 10.646 2.73219 17.3643V27.302Z" fill="black"/>
<path d="M31.8512 12.1062C31.4005 11.7273 30.8153 11.54 30.2243 11.5856C29.6334 11.6312 29.085 11.9058 28.6997 12.3492L19.0749 23.4293L13.8971 19.1745C13.6921 19.0009 13.4541 18.8692 13.1969 18.787C12.9398 18.7047 12.6686 18.6736 12.3991 18.6955C12.1296 18.7173 11.8673 18.7917 11.6272 18.9142C11.3872 19.0368 11.1743 19.205 11.001 19.4093C10.8276 19.6135 10.6972 19.8497 10.6173 20.1039C10.5375 20.3582 10.5098 20.6256 10.5359 20.8905C10.5619 21.1554 10.6412 21.4126 10.7691 21.6471C10.8971 21.8816 11.071 22.0887 11.281 22.2564L18.2181 27.9579C18.432 28.1335 18.6804 28.2638 18.9477 28.3407C19.215 28.4177 19.4955 28.4396 19.7718 28.4051C20.0648 28.3829 20.3505 28.3039 20.6125 28.1728C20.8745 28.0417 21.1076 27.861 21.2986 27.6412L32.0967 15.2076C32.4812 14.7636 32.6711 14.1877 32.6248 13.6061C32.5784 13.0245 32.2995 12.4847 31.8493 12.1053" fill="white"/>
</svg>
