<svg width="19" height="19" viewBox="0 0 19 19" fill="none" xmlns="http://www.w3.org/2000/svg">
<path d="M9.19238 5.95752C7.39748 5.95752 5.94238 7.41257 5.94238 9.20747C5.94238 11.0025 7.39748 12.4575 9.19238 12.4575C10.9873 12.4575 12.4424 11.0025 12.4424 9.20747C12.4424 7.41257 10.9873 5.95752 9.19238 5.95752Z" fill="#035C67"/>
<path fill-rule="evenodd" clip-rule="evenodd" d="M3.96162 0.289027C7.40978 -0.0963425 10.9745 -0.0963425 14.4226 0.289027C16.321 0.501207 17.8522 1.99699 18.075 3.90204C18.4873 7.42702 18.4873 10.9881 18.075 14.5131C17.8522 16.4181 16.321 17.9139 14.4226 18.1261C10.9745 18.5115 7.40978 18.5115 3.96162 18.1261C2.06322 17.9139 0.53203 16.4181 0.30921 14.5131C-0.10307 10.9881 -0.10307 7.42702 0.30921 3.90204C0.53203 1.99699 2.06322 0.501207 3.96162 0.289027ZM14.1921 3.20757C13.6398 3.20757 13.1921 3.65528 13.1921 4.20757C13.1921 4.75985 13.6398 5.20757 14.1921 5.20757C14.7444 5.20757 15.1921 4.75985 15.1921 4.20757C15.1921 3.65528 14.7444 3.20757 14.1921 3.20757ZM4.44208 9.20752C4.44208 6.58421 6.56873 4.45757 9.19208 4.45757C11.8155 4.45757 13.9421 6.58421 13.9421 9.20752C13.9421 11.8309 11.8155 13.9575 9.19208 13.9575C6.56873 13.9575 4.44208 11.8309 4.44208 9.20752Z" fill="#035C67"/>
</svg>
