<svg width="24" height="24" viewBox="0 0 24 24" fill="none" xmlns="http://www.w3.org/2000/svg">
<path fill-rule="evenodd" clip-rule="evenodd" d="M18.4833 19.7902L18.484 19.7885L18.5014 19.745L21.5002 4.62592V4.57681C21.5002 4.20011 21.361 3.87125 21.0581 3.67399C20.793 3.50133 20.4883 3.48904 20.2746 3.50526C20.0485 3.52241 19.8354 3.57883 19.6879 3.62579C19.612 3.64995 19.5485 3.67323 19.503 3.69083C19.4802 3.69967 19.4617 3.70717 19.4483 3.71275L19.4351 3.71831L2.71527 10.2772L2.71067 10.2789C2.70164 10.2822 2.6897 10.2866 2.67527 10.2922C2.64652 10.3034 2.60738 10.3194 2.5614 10.3403C2.47112 10.3812 2.34638 10.4443 2.21988 10.531C2.00503 10.6781 1.59591 11.0264 1.66499 11.5786C1.72221 12.0361 2.03752 12.3266 2.25009 12.477C2.36403 12.5576 2.47305 12.6157 2.55288 12.6537C2.59332 12.673 2.62768 12.6877 2.65327 12.6982C2.6661 12.7034 2.67682 12.7076 2.68512 12.7107L2.69575 12.7147L2.70254 12.7172L5.62778 13.702C5.61791 13.8855 5.63611 14.0727 5.68478 14.2573L7.15007 19.8157C7.3238 20.4748 7.92003 20.9338 8.6016 20.9334C9.21253 20.9329 9.75436 20.5633 9.98454 20.0119L12.2722 17.5658L16.2012 20.5781L16.2571 20.6024C16.614 20.7582 16.9476 20.8076 17.2525 20.7659C17.557 20.7243 17.7989 20.5966 17.9807 20.4512C18.1596 20.3081 18.2821 20.1466 18.3592 20.025C18.3984 19.9632 18.4276 19.9089 18.4478 19.8681C18.458 19.8476 18.466 19.8302 18.472 19.8167L18.4796 19.7992L18.4823 19.7928L18.4833 19.7902ZM7.13518 13.8749C7.10188 13.7486 7.15416 13.6152 7.26445 13.5452L17.1865 7.24432C17.1865 7.24432 17.7701 6.89002 17.7492 7.24432C17.7492 7.24432 17.8534 7.30688 17.5406 7.59861C17.244 7.87569 10.469 14.4167 9.78341 15.0786C9.74384 15.1168 9.72022 15.1606 9.70627 15.2138L8.60047 19.4333L7.13518 13.8749Z" fill="#035C67"/>
</svg>
