<svg width="10" height="18" viewBox="0 0 10 18" fill="none" xmlns="http://www.w3.org/2000/svg">
<path d="M7.21675 0C6.00828 0 4.84926 0.480605 3.99468 1.33607C3.1402 2.19155 2.6601 3.35182 2.6601 4.56164V7.10137H0.221675C0.0992512 7.10137 0 7.20069 0 7.32329V10.6767C0 10.7993 0.0992512 10.8986 0.221675 10.8986H2.6601V17.7781C2.6601 17.9007 2.75935 18 2.88177 18H6.23153C6.35399 18 6.4532 17.9007 6.4532 17.7781V10.8986H8.9132C9.01498 10.8986 9.10365 10.8293 9.12828 10.7306L9.96571 7.37714C10.0007 7.23708 9.89488 7.10137 9.75064 7.10137H6.4532V4.56164C6.4532 4.35892 6.53369 4.16449 6.67685 4.02114C6.82 3.87779 7.01429 3.79726 7.21675 3.79726H9.77833C9.90079 3.79726 10 3.6979 10 3.57534V0.221918C10 0.09936 9.90079 0 9.77833 0H7.21675Z" fill="#035C67"/>
</svg>
