<svg width="24" height="21" viewBox="0 0 24 21" fill="none" xmlns="http://www.w3.org/2000/svg">
<path fill-rule="evenodd" clip-rule="evenodd" d="M24 10.5004C24 9.74406 23.4801 9.13086 22.8387 9.13086H1.16129C0.519933 9.13086 0 9.74406 0 10.5004C0 11.2568 0.519933 11.87 1.16129 11.87H22.8387C23.4801 11.87 24 11.2568 24 10.5004Z" fill="black"/>
<path fill-rule="evenodd" clip-rule="evenodd" d="M24 1.36957C24 0.613182 23.4801 0 22.8387 0H1.16129C0.519933 0 0 0.613182 0 1.36957C0 2.12595 0.519933 2.73913 1.16129 2.73913H22.8387C23.4801 2.73913 24 2.12595 24 1.36957Z" fill="black"/>
<path fill-rule="evenodd" clip-rule="evenodd" d="M24 19.6313C24 18.8749 23.4801 18.2617 22.8387 18.2617H1.16129C0.519933 18.2617 0 18.8749 0 19.6313C0 20.3876 0.519933 21.0008 1.16129 21.0008H22.8387C23.4801 21.0008 24 20.3876 24 19.6313Z" fill="black"/>
</svg>
