<svg width="321" height="59" viewBox="0 0 321 59" fill="none" xmlns="http://www.w3.org/2000/svg">
<path d="M166.63 59C142.817 59 120.959 58.1573 105.381 56.9077C76.9948 54.6347 45.5162 48.9778 25.1756 42.5008C-0.00356119 34.4837 -6.56873 25.8918 6.7134 18.3073C22.3484 9.38292 62.5742 4.87873 93.5975 2.67345C127.087 0.287364 157.352 0.00322881 157.636 0L157.826 0.645762C157.522 0.64899 127.827 0.929897 94.9447 3.27724C64.7373 5.42763 25.555 9.81558 10.3565 18.4914C-2.64101 25.9144 3.81031 34.3319 28.5151 42.1973C48.4952 48.5613 79.3097 54.1051 106.993 56.3233C136.081 58.6545 187.673 59.5328 232.206 55.9488C268.808 53.0041 294.006 47.4925 305.087 40.0114C333.738 20.6676 307.459 8.97609 270.914 6.30263C237.196 3.83259 169.211 2.69605 147.618 4.2362L146.157 3.6421C168.888 2.018 237.329 3.1384 272.432 5.70853C310.419 8.48854 337.989 20.461 308.787 40.1696C297.421 47.8445 271.502 53.5013 233.838 56.5332C211.998 58.2897 188.489 59 166.63 59Z" fill="#F5A800"/>
</svg>
