<svg width="46" height="40" viewBox="0 0 46 40" fill="none" xmlns="http://www.w3.org/2000/svg">
<path d="M8.10777 2.70745C10.2825 0.708103 16.2629 0.0694218 18.9813 0H20.445C21.9088 0 33.6187 0 40.5192 7.08103C47.4197 14.1621 45.1195 21.0348 43.8649 24.5753C42.6103 28.1158 35.7098 38.7374 22.1179 39.5704C8.52598 40.4035 3.29833 29.5737 1.20727 25.6167C-0.883786 21.6596 0.161744 16.6612 1.20727 14.1621C2.2528 11.6629 3.29833 12.7042 3.29833 10.8298C3.29833 8.95542 5.38939 5.20664 8.10777 2.70745Z" fill="#79B2B9"/>
<path d="M4.19718 11.6378C4.44464 11.5234 4.31978 11.4807 4.35156 11.447C3.93156 11.6783 4.22443 11.6536 4.19718 11.6378Z" fill="black"/>
<path d="M2.01624 14.312V14.2424C1.95267 14.3951 1.8891 14.5477 1.83008 14.7027C1.8891 14.5724 1.9504 14.4422 2.01624 14.312Z" fill="black"/>
<path d="M0.831055 17.1985C1.05354 16.9538 1.08078 16.1097 1.34186 15.6046L1.40997 15.5327C1.39862 15.4384 1.39181 15.3441 1.38727 15.2454C1.12619 15.8986 0.980892 16.7472 0.831055 17.1985Z" fill="black"/>
<path d="M0.193359 18.7699C0.270548 18.6756 0.1979 19.1358 0.266008 18.386C0.254656 18.4219 0.247846 18.4331 0.241035 18.4533C0.231954 18.5207 0.218332 18.6127 0.193359 18.7699Z" fill="black"/>
<path d="M0.240687 18.454C0.281552 18.1262 0.156687 18.6605 0.240687 18.454V18.454Z" fill="black"/>
<path d="M0.122594 19.9759L0.0930808 19.5381C0.0476755 19.6256 0.0204324 20.014 0 19.8681C0.00454053 20.3193 0.0476755 20.2273 0.122594 19.9759Z" fill="black"/>
<path d="M0.223221 20.391C0.21414 20.3169 0.211869 20.2406 0.207329 20.1665C0.189167 20.2069 0.177815 20.2653 0.223221 20.391Z" fill="black"/>
<path d="M0.182617 19.6885L0.20532 20.1667C0.234833 20.106 0.287049 20.1016 0.200779 19.9466C0.246185 19.9893 0.20532 19.895 0.182617 19.6885Z" fill="black"/>
<path d="M0.232422 19.4211C0.291449 19.1809 0.343665 18.8733 0.357286 19.3111C0.38453 18.9003 0.379989 18.7229 0.345935 18.7476C0.311881 18.7746 0.257395 19.008 0.232422 19.4211Z" fill="black"/>
<path d="M0.960875 17.3873C0.997199 17.2862 1.04033 17.1875 1.0812 17.0887L1.09482 16.8103C1.08574 16.9495 0.901848 17.394 0.960875 17.3873Z" fill="black"/>
<path d="M0.113281 22.6944C0.149605 22.7169 0.18593 22.5395 0.229065 22.5014L0.163227 22.1848C0.151876 22.3509 0.154146 22.6675 0.113281 22.6944Z" fill="black"/>
<path d="M0.229492 22.5012C0.261276 22.6584 0.308951 22.8155 0.347546 22.9704C0.29306 22.5461 0.263546 22.472 0.229492 22.5012Z" fill="black"/>
<path d="M0.39877 20.4744C0.357905 20.214 0.342013 19.9536 0.3125 19.6909C0.337473 20.0052 0.355635 20.315 0.39877 20.6248V20.4744Z" fill="black"/>
<path d="M0.422006 24.5173C0.374331 24.4342 0.324385 24.3512 0.28125 24.2659C0.356169 24.4185 0.435628 24.5667 0.512817 24.7171L0.422006 24.5173Z" fill="black"/>
<path d="M0.762877 25.6979C0.640283 25.5228 0.740174 25.9987 0.635742 25.8034C0.740174 26.1245 0.905904 26.3714 1.04212 26.5937C0.919525 26.349 0.815093 26.0751 0.762877 25.6979Z" fill="black"/>
<path d="M1.26448 26.9711C1.19637 26.8521 1.12372 26.7286 1.04199 26.5962C1.10783 26.7264 1.17367 26.8521 1.26448 26.9711Z" fill="black"/>
<path d="M0.455353 23.7788C0.441731 23.8192 0.400866 23.8978 0.428109 24.1694L0.487136 23.9651C0.478055 23.909 0.466704 23.8439 0.455353 23.7788Z" fill="black"/>
<path d="M0.492505 23.9583L0.490234 23.965C0.524288 24.167 0.551532 24.3062 0.567423 24.3646C0.551532 24.3152 0.528829 24.1917 0.492505 23.9583Z" fill="black"/>
<path d="M0.447266 23.7317C0.449536 23.7498 0.451806 23.7612 0.456347 23.7793C0.463158 23.7612 0.463158 23.7476 0.447266 23.7317Z" fill="black"/>
<path d="M0.327148 21.7178C0.397527 21.9962 0.506499 22.5641 0.542823 22.0006C0.461094 21.8076 0.436121 22.1309 0.327148 21.7178Z" fill="black"/>
<path d="M0.525839 23.4824C0.500866 23.3163 0.494055 23.1479 0.475893 22.9795C0.45092 22.993 0.425947 23.0873 0.382812 22.9548C0.430488 23.1322 0.469082 23.3095 0.525839 23.4824Z" fill="black"/>
<path d="M0.601603 23.7204L0.524414 23.4824L0.551657 23.6688L0.601603 23.7204Z" fill="black"/>
<path d="M1.03772 26.1179C1.15578 26.311 1.24205 26.5355 1.34421 26.7869C1.26021 26.5063 1.16259 26.2235 1.06497 25.9541C1.02864 25.9249 0.92875 25.8261 1.03772 26.1179Z" fill="black"/>
<path d="M0.738281 25.0762C0.745092 25.0898 0.749633 25.1102 0.756443 25.1216C0.756443 25.0898 0.754173 25.0672 0.738281 25.0762Z" fill="black"/>
<path d="M2.55361 29.1694C2.55134 29.1535 2.54907 29.1399 2.5468 29.124C2.53999 29.124 2.53545 29.124 2.52637 29.124L2.55361 29.1694Z" fill="black"/>
<path d="M1.06707 25.9025C1.0194 25.6892 0.960369 25.5702 0.894531 25.4602C0.951288 25.6129 1.01031 25.7767 1.0648 25.9541C1.08296 25.9676 1.09431 25.9676 1.06707 25.9025Z" fill="black"/>
<path d="M1.61354 27.6377C1.58402 27.5255 1.5477 27.3997 1.50684 27.2695C1.52273 27.384 1.57267 27.613 1.61354 27.6377Z" fill="black"/>
<path d="M0.751903 25.2004C0.747362 25.189 0.742822 25.18 0.738281 25.1709C0.740552 25.2457 0.747362 25.2344 0.751903 25.2004Z" fill="black"/>
<path d="M0.750977 25.1999C0.798652 25.3032 0.846328 25.3818 0.894003 25.4603C0.846328 25.3346 0.800922 25.2201 0.755517 25.1213C0.757787 25.1505 0.755517 25.1797 0.750977 25.1999Z" fill="black"/>
<path d="M3.51011 29.508C3.46471 29.517 3.33757 29.4227 3.21044 29.2611C3.08784 29.0972 2.9539 28.8727 2.87217 28.6437C2.56795 28.2733 2.46806 28.6751 2.54979 29.1264C2.59066 29.1196 2.62244 29.1017 2.92666 29.499C2.87671 29.3217 2.45217 28.5 2.73822 28.8143C3.11963 29.3464 2.98114 29.2925 3.12417 29.5799C3.06514 29.2992 3.73487 30.1703 3.78708 29.957L3.41476 29.526C3.42838 29.5035 3.58049 29.6472 3.51011 29.508Z" fill="black"/>
<path d="M2.07904 28.2887L1.97461 28.1113C2.07223 28.3268 2.1131 28.4952 2.20618 28.8005C2.42412 29.0744 2.48996 29.1193 2.52855 29.1238L2.26974 28.686L2.03818 28.2326L2.07904 28.2887Z" fill="black"/>
<path d="M1.57339 27.2743C1.73004 27.3843 1.96841 27.8131 1.94117 27.4943C1.69144 26.951 1.69598 27.1441 1.50982 26.832C1.92982 27.7098 1.34409 26.5963 1.58247 27.263C1.49166 27.0924 1.40766 26.9398 1.34863 26.7871C1.39858 26.9577 1.46215 27.1149 1.50982 27.2698C1.50755 27.2608 1.50755 27.2541 1.50528 27.2473L1.50301 27.2428H1.50528C1.49847 27.2002 1.50074 27.1845 1.51436 27.2294C1.51663 27.2316 1.52117 27.2428 1.52344 27.2473C1.53479 27.2496 1.55523 27.2608 1.57339 27.2743C1.67101 27.5414 1.56885 27.3259 1.52117 27.2496C1.51436 27.2496 1.50755 27.2428 1.50301 27.2451C1.50301 27.2451 1.50301 27.2473 1.50301 27.2496C1.65285 27.5414 1.80042 27.8355 1.97523 28.1139C1.93209 28.0196 1.88214 27.9141 1.81177 27.7839C1.7482 27.6447 1.67101 27.4831 1.57339 27.2743Z" fill="black"/>
<path d="M0.79094 22.4902C0.784129 22.5197 0.777319 22.5197 0.770508 22.5242C0.79094 22.5854 0.800021 22.6081 0.79094 22.4902Z" fill="black"/>
<path d="M0.782892 22.8852C0.760189 22.8179 0.714784 22.7662 0.694351 22.5395C0.707973 22.3419 0.742027 22.535 0.77154 22.5215C0.735216 22.3891 0.662568 22.0546 0.651216 22.4834L0.669378 22.5485C0.687541 22.9324 0.630784 23.4465 0.610352 23.3814C0.683 23.2601 0.732946 23.1501 0.782892 22.8852Z" fill="black"/>
<path d="M1.04199 25.115L1.32577 25.8693L1.28718 25.454L1.24405 25.4877C1.12826 25.0476 1.09648 25.1599 1.04199 25.115Z" fill="black"/>
<path d="M2.56131 29.2743L2.41602 29.2339L2.78607 29.5639L2.56131 29.2743Z" fill="black"/>
<path d="M3.16078 30.1545L3.06543 30.1725L3.26975 30.3723L3.16078 30.1545Z" fill="black"/>
<path d="M43.3109 15.2838L43.2314 15.0728C43.2632 15.1715 43.2882 15.2366 43.3109 15.2838Z" fill="black"/>
<path d="M43.6097 16.8782L43.6596 16.9122C43.6233 16.8396 43.6029 16.8102 43.6097 16.8782Z" fill="black"/>
<path d="M26.0732 39.5699C26.4365 39.5834 26.8519 39.6058 26.7838 39.5183L26.6544 39.4509C26.4229 39.5362 26.2344 39.5542 26.0732 39.5699Z" fill="black"/>
<path d="M40.1365 29.5486C40.1092 29.5665 40.0797 29.5868 40.0502 29.607C40.0229 29.6923 40.0002 29.7731 39.9775 29.8449C40.0252 29.7551 40.0797 29.6541 40.1365 29.5486Z" fill="black"/>
<path d="M39.9688 29.1106L40.2957 28.8098C40.2162 28.8727 40.1118 28.9692 39.9688 29.1106Z" fill="black"/>
<path d="M38.9795 7.61278L38.7275 7.48706C39.0068 7.78564 38.9205 7.61951 38.9795 7.61278Z" fill="black"/>
<path d="M11.3936 37.0333C11.6387 37.2084 11.8363 37.3408 12.0224 37.4396C11.7273 37.2241 11.5184 37.0063 11.3936 37.0333Z" fill="black"/>
<path d="M44.4765 15.7036C44.4311 15.5644 44.3993 15.5061 44.3789 15.5151C44.4243 15.6587 44.4584 15.7396 44.4765 15.7036Z" fill="black"/>
<path d="M12.8021 37.8235C12.7567 37.7921 12.7136 37.7629 12.6705 37.7337C12.4661 37.6507 12.2618 37.5654 12.0234 37.4419C12.2437 37.5946 12.5093 37.7539 12.8021 37.8235Z" fill="black"/>
<path d="M8.53459 4.43384C8.51416 4.44517 8.48918 4.46104 8.46875 4.47011C8.47102 4.48371 8.49826 4.46331 8.53459 4.43384Z" fill="black"/>
<path d="M3.39031 12.2195C3.37214 12.1207 3.3676 11.9591 3.35852 11.8064C3.35625 11.8805 3.35398 12.0084 3.39031 12.2195Z" fill="black"/>
<path d="M5.96862 33.3655C5.79608 33.2204 5.93456 33.3496 5.96862 33.3655V33.3655Z" fill="black"/>
<path d="M5.45703 32.3372C5.4979 32.3621 5.53422 32.378 5.55465 32.3666C5.52287 32.3689 5.49109 32.3576 5.45703 32.3372Z" fill="black"/>
<path d="M15.0819 38.1253C15.089 38.1276 15.0937 38.1299 15.1007 38.1323C15.0444 38.0901 15.0538 38.0995 15.0819 38.1253Z" fill="black"/>
<path d="M5.75 33.1047C5.80222 33.1743 5.86351 33.2484 5.9407 33.3203C5.90892 33.2843 5.85216 33.2192 5.75 33.1047Z" fill="black"/>
<path d="M5.75085 33.1693C5.69863 33.1131 5.65549 33.0682 5.6169 33.0256C5.58512 33.0166 5.59647 33.0413 5.75085 33.1693Z" fill="black"/>
<path d="M6.2093 33.567C6.11168 33.484 6.02314 33.4009 5.94141 33.3201C5.97092 33.3537 5.98 33.3695 5.96865 33.365C6.02087 33.4076 6.09124 33.466 6.2093 33.567Z" fill="black"/>
<path d="M25.4433 1.50635C25.4296 1.50181 25.4137 1.49728 25.3978 1.49048C25.1754 1.50635 25.273 1.51088 25.4433 1.50635Z" fill="black"/>
<path d="M31.0758 36.6404C31.0688 36.6474 31.0641 36.6498 31.0547 36.6568C31.0641 36.6521 31.0758 36.6474 31.0852 36.6451L31.0758 36.6404Z" fill="black"/>
<path d="M31.7135 36.2002C31.4888 36.4673 31.3208 36.5549 31.0869 36.6425L31.4502 36.7682L31.7135 36.2002Z" fill="black"/>
<path d="M41.9136 11.6558C41.9726 11.8241 42.0203 11.9992 42.0702 12.1699C41.8727 11.9094 41.7183 11.6805 41.6366 11.5727C41.5549 11.4649 41.5435 11.4829 41.6026 11.7276C41.6775 11.7096 41.7842 11.8107 41.8886 11.9768C41.993 12.1452 42.1066 12.3764 42.2201 12.6054C42.3222 12.8389 42.4244 13.0746 42.522 13.2497C42.6196 13.4226 42.6968 13.5415 42.7763 13.5326L42.833 13.8828C42.8013 13.7885 42.7786 13.7795 42.749 13.6852C42.7967 14.0287 42.8898 14.1275 42.9965 14.2532C43.1032 14.3767 43.244 14.5204 43.337 14.9536C43.3893 15.2589 43.3983 15.4745 43.3121 15.2814L43.4324 15.6047L43.5368 15.9324C43.5686 16.1278 43.5073 16.0896 43.4755 15.8965L43.5868 16.4039L43.673 16.9157L43.664 16.909C43.7389 17.0482 43.8456 17.376 43.8887 17.5398C43.8683 17.8092 43.8433 17.4096 43.8115 17.4815C43.8501 17.6723 43.9001 17.8609 43.9318 18.0539C43.8955 18.1752 43.8547 18.1146 43.8229 17.9754C43.7843 17.8384 43.748 17.6207 43.7366 17.4231C43.4733 17.9799 43.8774 17.8945 43.7025 19.0574C43.6957 18.8778 43.6844 18.6982 43.6617 18.5186C43.5845 18.6938 43.555 18.8846 43.5277 19.1068C43.5028 19.3291 43.4914 19.5828 43.4074 19.8791C43.4937 19.7489 43.723 18.678 43.7888 19.2999C43.7752 19.3874 43.7661 19.4885 43.7616 19.6097C43.7548 19.7309 43.7548 19.8724 43.7729 20.043C43.6617 20.0385 43.6753 20.3663 43.6186 20.7726L43.4778 20.7255C43.4596 21.1655 43.5436 21.1453 43.5573 21.4124C43.446 21.8973 43.3234 21.9759 43.2008 22.0657C42.9851 22.8223 43.5118 21.5763 43.3075 22.49C43.2054 22.8043 43.1214 23.0714 43.0487 23.361C42.9851 23.6529 42.9034 23.956 42.8035 24.3443C42.5924 24.7619 42.749 24.2366 42.6514 24.378C42.6423 24.5217 42.6196 24.6586 42.5992 24.8001C42.5561 24.8921 42.5356 24.8472 42.5266 24.8248C42.4267 25.1593 42.6491 24.9078 42.4607 25.4264C42.5016 25.5274 42.3177 25.7564 42.1088 26.0415C42.0089 26.1852 41.8909 26.3401 41.7842 26.4973C41.6797 26.6567 41.5935 26.825 41.5481 26.9957C41.4277 27.1191 41.5117 26.8812 41.4391 26.8969C41.2484 27.3234 41.1462 27.4985 41.0736 27.6647C41.035 27.7477 41.0009 27.8263 40.9578 27.9296C40.9101 28.0306 40.8534 28.1586 40.7716 28.3359C40.615 28.4931 40.4652 28.6547 40.3017 28.8074C40.4947 28.6502 40.5196 28.7086 40.4674 28.8747C40.4107 29.0363 40.2722 29.299 40.1405 29.5459C40.2903 29.4449 40.422 29.3551 40.5015 29.2923C40.3357 29.5347 40.1746 29.7862 39.9998 30.0219C39.9112 30.087 39.9316 29.9882 39.9816 29.84C39.9521 29.8939 39.9248 29.9433 39.9021 29.9837C39.6547 30.1858 39.6978 30.0084 39.7841 29.7884C39.8749 29.7255 39.9657 29.6649 40.0542 29.6043C40.1223 29.3798 40.1723 29.1643 40.0792 29.1463C40.0565 29.2002 39.9997 29.2923 39.9316 29.391C39.9475 29.3327 39.9543 29.2923 39.9271 29.3035C39.8976 29.317 39.8658 29.4068 39.8045 29.5392C39.7228 29.5572 39.6388 29.5706 39.5525 29.5864L39.5707 29.6627C39.2937 29.9253 39.0235 30.1925 38.7398 30.4462C38.5218 30.7964 38.3447 31.1489 38.095 31.5215C37.9724 31.7101 37.8385 31.9077 37.675 32.1187C37.5093 32.3252 37.3208 32.5452 37.0961 32.7832C37.2482 32.4734 37.0121 32.5969 36.9281 32.4824C37.1074 32.4128 37.2777 32.2287 37.4639 32.0064C37.6523 31.7842 37.8453 31.5125 38.0927 31.2858C37.8362 31.5238 37.843 31.4227 37.8884 31.3442L37.5206 31.8156L37.1392 32.2781C37.0779 32.1771 36.8986 32.3948 36.6375 32.5722C36.8032 32.5744 36.6647 32.7518 36.4422 32.974C36.331 33.084 36.2016 33.2075 36.079 33.3265C35.9541 33.441 35.8361 33.551 35.7544 33.643C35.6794 33.6026 35.7248 33.4769 36.1789 33.0975C35.8815 33.2569 35.7589 33.432 35.6477 33.6228C35.5319 33.8091 35.4229 34.0067 35.1232 34.1481C35.2367 34.0561 35.3048 34.0179 35.3253 33.9528C35.1028 34.2155 34.4194 34.6869 34.5307 34.5141L34.6419 34.4243C34.2537 34.7071 33.6657 35.1382 33.1572 35.5086C32.6509 35.8813 32.2264 36.1956 32.215 36.319C32.1946 36.3033 32.2014 36.0564 32.2286 35.9935C31.854 36.4694 31.4636 36.9431 31.0413 37.3966C31.098 37.1811 30.4056 37.1025 31.064 36.6535C30.9573 36.6962 30.8392 36.7433 30.6985 36.8152C30.5577 36.8893 30.392 36.9813 30.1854 37.1048C30.3352 37.0599 30.644 37.1519 30.4556 37.2574C30.1491 37.3001 30.0469 37.3203 29.9311 37.3517C29.8154 37.3831 29.6859 37.428 29.3227 37.4909C29.552 37.4325 29.4158 37.7693 29.0684 37.9062C29.107 37.8478 28.9436 37.6817 29.0571 37.6054C28.8096 37.8074 28.5485 37.9803 28.2897 38.1689C28.4918 38.0477 28.2534 37.9534 28.0377 37.9556C28.1467 37.9803 27.2863 38.1936 27.0593 38.2856C27.1887 38.2721 27.3181 38.2475 27.4475 38.2273C26.4486 38.4787 26.5575 38.8558 25.5314 39.0601C25.6449 38.9793 25.7697 38.6897 25.2521 38.7503C25.1454 38.8334 24.9116 39.0287 24.5824 39.2352C24.4167 39.3295 24.2282 39.4261 24.0194 39.5136C23.9149 39.5563 23.8082 39.5967 23.697 39.6326C23.5857 39.6618 23.47 39.6887 23.3542 39.7089L23.168 39.6461C22.9296 39.691 22.6913 39.7314 22.4506 39.7583C22.6754 39.6663 23.0954 39.4867 23.5313 39.3116C23.9626 39.1297 24.4167 38.9367 24.7322 38.802C24.344 38.8065 24.6142 38.7346 24.0443 38.8087C23.8355 38.7616 24.3417 38.6695 24.5075 38.6471C24.0648 38.6807 23.6243 38.7279 23.1816 38.7301C23.2157 38.802 22.9637 38.8603 22.7094 38.9052C22.4529 38.9434 22.1941 38.9771 22.2213 39.0399C22.7094 38.9905 23.1907 38.903 23.6697 38.8177C23.7469 38.9591 22.857 39.3228 21.8808 39.2891C21.6356 39.2263 22.0669 39.022 22.0465 38.9681C21.9239 39.0354 21.1384 39.0377 21.0521 39.0018L21.4608 38.9367C20.9386 38.8671 20.5822 39.0871 19.9579 38.8828C19.7399 38.8424 19.3358 38.5999 19.2859 38.683C19.6105 38.9007 19.6173 39.4395 19.3517 39.5338C19.27 39.5248 18.1961 39.1746 17.9668 39.031C17.8011 38.9209 17.9555 38.876 18.1121 38.8334C18.2711 38.7862 18.4345 38.7369 18.2938 38.6516C18.2711 38.692 18.0645 38.7009 17.9782 38.6942C17.7603 38.6067 18.1008 38.5909 17.6059 38.4922C17.4856 38.6291 16.6138 38.2228 17.3403 38.5618C16.8476 38.4787 16.8408 38.3889 16.2778 38.2362C16.4253 38.3911 15.6762 38.3889 15.179 38.2677C15.2198 38.243 15.1313 38.1554 15.0882 38.1128C14.6114 37.9174 14.2459 37.7648 13.9053 37.5852C13.5603 37.4123 13.222 37.244 12.7952 37.0307C12.7316 36.9588 12.3411 36.7164 12.5455 36.7433C12.4092 36.7097 12.273 36.6984 12.0142 36.557C11.5783 36.1664 12.5999 36.8533 12.2935 36.5054C12.2185 36.566 11.5692 36.2494 11.1742 36.0968C11.2196 36.2764 12.0119 36.5884 12.407 36.7343C12.3184 36.9095 11.5806 36.7299 10.6498 36.319C9.9392 35.9396 10.416 36.0317 10.2843 35.9823C9.65087 35.5737 9.33077 35.4817 9.05606 35.3672C8.77909 35.2594 8.52709 35.1606 8.05261 34.7431C7.73023 34.3412 8.17974 34.5365 8.14569 34.3996C8.69509 34.7475 8.91985 35.0327 9.28309 35.2841L8.86763 34.9294C9.06288 35.0102 9.43066 35.2392 9.61455 35.3919C9.46698 35.2414 8.95617 34.871 8.36136 34.4602C8.07531 34.2402 7.77337 34.0022 7.48731 33.7732C7.41693 33.7149 7.34656 33.6587 7.27845 33.6026C7.21261 33.542 7.15131 33.4836 7.08775 33.4253C6.96515 33.3085 6.85164 33.1985 6.75175 33.0952C6.57013 32.992 6.27499 32.7899 6.36807 32.9359L6.65413 33.1626C6.84256 33.4567 6.04343 32.8101 6.36126 33.1491C6.14786 33.0167 5.92991 32.8663 5.70516 32.6844C5.48267 32.5003 5.23748 32.2983 5.02181 32.0222L5.03543 31.8313C5.02635 31.8515 5.08537 31.9481 5.16937 32.0558C5.25564 32.1613 5.37143 32.2713 5.45543 32.3252C5.18981 32.1748 4.86743 31.4227 4.51554 31.3082L4.76981 31.7325C4.57911 31.5687 4.34073 31.4048 4.12732 31.1982C3.91165 30.9917 3.69597 30.7627 3.51889 30.5046C3.587 30.8099 3.62105 30.6078 3.77316 31.0546C3.7323 30.8413 3.97522 31.1601 4.21359 31.4452C4.46105 31.7213 4.69262 31.975 4.56321 31.6764C4.64494 31.9054 4.76527 32.067 4.89694 32.2377C5.03089 32.4083 5.19435 32.5722 5.35099 32.8416C5.36916 32.7967 5.26018 32.6305 5.62116 33.0167C5.6484 33.0234 5.69835 33.0503 5.7324 33.0683C5.74375 33.0795 5.74602 33.084 5.7551 33.0952C5.74829 33.0863 5.74375 33.0795 5.73694 33.0706C5.75737 33.0818 5.75964 33.0818 5.73013 33.0616C5.65521 32.9605 5.59845 32.8707 5.5871 32.8259C5.83683 32.9448 6.46115 33.4881 6.70861 33.6296C6.92656 33.8496 6.57694 33.5846 6.67229 33.7328C6.79715 33.8024 6.91748 33.8765 7.04234 33.9438C7.00829 34.0471 7.5872 34.5792 6.96969 34.1751L7.48958 34.5837C7.6258 34.7229 7.79607 34.8845 7.97088 35.0237C8.15023 35.1561 8.33185 35.2751 8.47942 35.3514C8.72461 35.5468 9.19001 35.7039 8.92212 35.6163C9.21271 35.8027 9.52601 35.9531 9.82795 36.117L9.82341 36.1439C10.0391 36.2786 10.2638 36.4066 10.4931 36.5345C10.7292 36.649 10.9676 36.768 11.2105 36.887C11.4535 37.0082 11.6964 37.134 11.937 37.2776C12.1822 37.4146 12.4297 37.556 12.6703 37.7266C12.9882 37.8613 13.3287 37.9691 13.844 38.2273L13.9122 38.353C14.3344 38.4899 15.1222 38.9232 15.3402 38.8873C15.4332 38.9816 15.608 39.0758 15.8305 39.1656C16.0507 39.2577 16.3232 39.3295 16.6047 39.4059C16.8839 39.4867 17.1813 39.5428 17.4515 39.5989C17.7217 39.6595 17.9691 39.7134 18.1621 39.7561L18.2143 39.6506C18.4799 39.7022 18.741 39.7493 19.0202 39.7808C19.3018 39.8055 19.5969 39.8279 19.9329 39.8504L19.9034 39.7449C20.194 39.7291 20.5572 39.783 20.9659 39.8391C21.3745 39.8795 21.8286 39.9447 22.2849 39.9244C22.2236 39.9626 21.992 39.9559 21.8286 39.9357C22.101 39.9896 22.3825 40.0053 22.6663 39.9985C22.9501 39.9918 23.2339 39.9424 23.5108 39.902C23.7901 39.8661 24.0625 39.7942 24.3281 39.7583C24.5937 39.7224 24.8526 39.6865 25.1023 39.6865C25.3384 39.6079 25.5177 39.5989 25.6903 39.5855C25.6676 39.59 25.6471 39.5967 25.6313 39.6034C25.6562 39.5989 25.6926 39.5922 25.7311 39.5832C25.8401 39.5765 25.9536 39.5742 26.0762 39.5653C25.9695 39.563 25.8696 39.563 25.7834 39.572C25.9673 39.5293 26.2488 39.4597 26.5167 39.3722L26.6597 39.4463C26.6824 39.4395 26.6983 39.4328 26.7233 39.4261C27.0025 39.3946 26.9253 39.3206 26.7618 39.2779C26.8935 39.224 27.0138 39.1701 27.1024 39.1207C27.3703 39.2397 27.788 38.8536 28.1376 38.9412C28.292 38.8042 29.443 38.3956 29.4975 38.1509C29.5157 38.1711 29.5974 38.1487 29.4589 38.2093C29.7541 38.1128 30.0492 38.0095 30.2762 37.8389L30.4556 37.9062C30.6326 37.7536 30.812 37.6054 30.98 37.4438C31.3818 37.3293 31.5589 37.2911 31.2456 37.574C31.6497 37.2754 31.8132 37.1631 31.963 37.0576C32.1106 36.9521 32.2491 36.8646 32.5646 36.5772L32.5783 36.6737C32.8303 36.5098 33.1708 36.1596 33.3592 36.1215C33.5204 36.0631 33.7747 35.9172 34.0857 35.7196C34.3899 35.5131 34.7577 35.2572 35.1346 34.9631C35.8997 34.3861 36.7147 33.6677 37.4003 33.1446C36.978 33.185 38.0564 32.6777 37.9633 32.4846C38.0791 32.4599 38.2743 32.3162 38.1154 32.5497C38.4038 32.2197 38.6489 31.9997 38.8646 31.7977C39.0758 31.5911 39.2483 31.3958 39.3913 31.1174C39.5071 31.086 39.3323 31.315 39.4208 31.2746C39.4594 31.214 39.5684 31.0344 39.6592 30.9917C39.7478 30.9513 39.6115 31.1197 39.5366 31.2409C40.1314 30.5719 40.0361 30.3721 39.9453 30.2082C40.3108 29.9298 40.4356 29.7345 40.5514 29.4112C40.6967 29.3259 40.9124 29.1598 40.5787 29.6043C40.7989 29.3821 41.8091 28.1294 41.6866 28.0126C41.7706 27.9498 41.9363 27.6534 41.9658 27.5749C42.161 27.2853 42.2519 27.1146 42.3517 26.9552C42.4471 26.7914 42.5515 26.6365 42.6991 26.3244L42.5901 26.4838C42.5538 26.1605 42.8262 25.9652 43.0374 25.4511L43.0464 25.4736C43.362 24.9191 43.4051 24.7866 43.4369 24.6542C43.4687 24.5217 43.5164 24.4005 43.7934 23.8302L43.6685 23.8617C43.5754 23.7696 43.6912 23.5182 43.8456 23.1972C43.9296 23.0378 43.9977 22.8537 44.0658 22.6674C44.1294 22.481 44.1929 22.2902 44.2043 22.1061C44.1702 22.1892 44.1271 22.2677 44.084 22.3486C44.0953 21.9535 44.6243 21.3226 44.6969 20.9163C44.7287 20.831 44.7105 21.06 44.7083 21.1834C44.849 20.6648 44.8172 20.6244 44.7605 20.6177C44.6992 20.611 44.6311 20.6357 44.6447 20.2428C44.7332 20.1036 44.8241 20.4493 44.8808 19.915C44.899 19.8499 44.9081 19.7197 44.8944 19.5491C44.8785 19.3807 44.8558 19.1697 44.8354 18.9474C44.8195 18.7252 44.7787 18.4895 44.7673 18.265C44.7537 18.0405 44.7537 17.8249 44.7696 17.6409C44.7242 17.8047 44.6788 17.9641 44.6038 17.6049C44.5857 17.4658 44.5834 17.3019 44.5834 17.1268C44.5834 16.9494 44.5743 16.7631 44.5675 16.5767C44.5584 16.2018 44.4926 15.8404 44.3541 15.6114C44.3564 15.5396 44.3655 15.5081 44.3791 15.5036C44.3178 15.2971 44.2043 14.9693 44.1021 14.6595C43.9909 14.352 43.8637 14.0758 43.7797 13.9681C43.8433 13.8446 43.807 13.6313 43.7207 13.3777C43.6776 13.2519 43.6254 13.115 43.5641 12.9758C43.5005 12.8389 43.4278 12.6997 43.3575 12.5627C43.2871 12.4258 43.219 12.2933 43.1554 12.1699C43.0873 12.0486 43.0283 11.9364 42.9829 11.8376C42.8921 11.6423 42.8603 11.5031 42.9397 11.4672C42.7331 11.0811 42.5311 10.6927 42.2973 10.3223L42.3449 10.3335C42.2428 10.1494 42.1542 9.99673 42.0702 9.87326C41.984 9.74979 41.9068 9.65101 41.8341 9.56794C41.6911 9.40182 41.5799 9.29855 41.4618 9.20201C41.3687 9.03139 41.4777 9.12793 41.5027 9.13242C41.3392 8.87425 41.2121 8.67444 41.1008 8.50832C40.9828 8.34668 40.8829 8.21871 40.7807 8.10198C40.5809 7.86176 40.3539 7.67543 39.9589 7.34093L39.9748 7.18827C39.8522 7.11194 39.5979 6.74601 39.2279 6.3262C39.0417 6.11742 38.8396 5.88394 38.6058 5.67292C38.3788 5.45515 38.1359 5.24862 37.8816 5.08024C37.8998 5.078 37.9315 5.078 38.0155 5.12739C37.4775 4.72778 36.8373 4.16879 36.2425 3.76918C36.0926 3.6704 35.9473 3.57611 35.8066 3.49305C35.6635 3.41672 35.5296 3.34937 35.4025 3.29549C35.1527 3.18324 34.9348 3.14059 34.7781 3.181L34.3491 3.04181L33.9154 2.92058C34.9688 3.38529 33.6884 3.01712 34.0993 3.25733C33.8882 3.18549 33.6317 3.04855 33.4909 2.95201C33.3479 2.86221 33.3252 2.80833 33.5885 2.89589L33.6612 2.94752C33.9359 2.80833 32.3467 2.39077 32.4171 2.27627C30.2512 1.59605 28.099 1.07073 25.9968 0.783369L26.217 0.978681C25.9741 0.940517 25.7311 0.911332 25.486 0.877658C25.2975 0.817043 25.243 0.718265 25.7652 0.790104C25.5019 0.66214 24.8775 0.763164 24.8594 0.799084C23.84 0.626221 25.2816 0.650915 24.9661 0.612751L24.537 0.581321L24.6323 0.610506C24.2782 0.639691 24.2419 0.709285 23.6107 0.64867C23.2134 0.581321 23.4132 0.531932 23.2566 0.513972C23.2588 0.502747 23.2066 0.493767 23.0159 0.491522C22.7094 0.473563 22.4007 0.451113 22.0896 0.430908L22.4529 0.579076C22.0374 0.621731 21.5811 0.527442 22.0011 0.695815C21.6946 0.563362 20.8274 0.511727 19.9919 0.498257C19.1542 0.491522 18.3483 0.525197 18.1553 0.498257C17.5809 0.608261 17.0133 0.635201 16.3073 0.677855C16.4844 0.695815 16.6001 0.823778 15.994 0.861943C16.0916 0.70255 15.8101 0.691325 15.44 0.71153C15.07 0.729489 14.6114 0.783369 14.3458 0.713775C14.5773 0.749694 14.146 0.826023 13.7464 0.922557C13.3446 1.01685 12.9927 1.15379 13.3537 1.15603C12.8519 1.27053 13.2969 1.05501 12.8973 1.09317C12.7521 1.1493 12.6022 1.20093 12.4478 1.25032C12.298 1.31094 12.1414 1.36931 11.9824 1.42543C11.8258 1.4838 11.6578 1.53094 11.4966 1.59605C11.3354 1.66115 11.1697 1.72626 11.004 1.79136C10.6657 1.91259 10.3388 2.08545 10.0005 2.2426C9.66904 2.41546 9.33985 2.60629 9.02428 2.81956C9.02655 2.86446 9.26947 2.77466 9.03336 3.00589C8.77909 3.10242 8.51347 3.19222 8.2592 3.29998C8.03218 3.49978 8.17747 3.64571 7.66212 3.87694C7.74158 3.85225 7.86191 3.81857 7.71661 3.95551C6.51564 4.82207 5.48494 5.96476 4.66765 7.25113C4.26808 7.89993 3.90711 8.58689 3.67327 9.3412C3.4417 10.091 3.32819 10.861 3.25781 11.6311C3.33727 11.2135 3.33273 11.4941 3.35316 11.8062C3.36224 11.6019 3.45306 11.8062 3.503 11.7658C3.46441 12.1878 3.46441 12.6099 3.47349 13.0342C3.56657 13.1374 3.62105 13.4675 3.69143 13.7862C3.75954 14.1028 3.84127 14.4059 3.92754 14.4508C3.88668 14.325 3.84354 14.1993 3.80722 14.0736C3.95024 14.3116 3.99792 14.1073 4.04332 13.8558C4.091 13.6044 4.14094 13.3036 4.25446 13.3215C4.11143 13.0611 4.11824 12.6772 4.14549 12.2597C4.16592 11.8399 4.20224 11.3954 4.08873 10.9351C4.14549 10.7376 4.14776 11.108 4.20451 11.0047C4.16592 10.8902 4.14322 10.76 4.14549 10.5984C4.16138 10.439 4.175 10.2392 4.24992 9.99449L4.26127 10.0551C4.38386 9.35243 4.59046 8.88996 4.86743 8.4275C5.13986 7.96503 5.46224 7.50032 5.99121 6.87398L5.83229 6.90541C6.05705 6.63152 6.13197 6.5956 6.26137 6.48784C6.33175 6.28355 6.16375 6.46764 6.00029 6.66295C5.84364 6.86051 5.68018 7.06255 5.72105 6.86275C5.95034 6.73703 6.33629 6.24763 6.76537 5.81435C6.87207 5.70435 6.97423 5.59434 7.07867 5.49556C7.18537 5.39903 7.28753 5.30923 7.38288 5.2329C7.57131 5.07575 7.73023 4.97473 7.83466 4.97249C8.25012 4.62003 7.63034 4.98371 8.04807 4.62901L8.20245 4.58635C8.21834 4.53472 8.23423 4.48084 8.25466 4.43145C8.5498 4.22267 8.74504 4.18001 8.79044 4.21593C8.7178 4.26308 8.60428 4.37757 8.5339 4.43818C8.93801 4.2092 9.57368 3.65693 9.72352 3.59407C9.56914 3.67489 9.41931 3.76469 9.2672 3.85C9.85747 3.39427 10.584 2.99467 11.3241 2.64894C11.5102 2.56588 11.6964 2.48281 11.8825 2.39975C12.071 2.32791 12.2571 2.25383 12.441 2.18423C12.5318 2.14831 12.6249 2.11015 12.7135 2.07423C12.8043 2.0428 12.8973 2.01361 12.9859 1.98218C13.1652 1.92157 13.3401 1.85871 13.5103 1.79361L13.3923 1.7734C13.9144 1.58931 14.1415 1.57584 14.3776 1.55339C14.4956 1.54217 14.6182 1.53319 14.7862 1.51747C14.9542 1.49727 15.1676 1.47033 15.4741 1.42543L15.431 1.44339C15.6693 1.36257 15.9963 1.31094 16.3345 1.284C16.028 1.36033 16.9293 1.35135 16.5275 1.44564C17.1314 1.35135 17.2812 1.33114 17.3789 1.29298C17.4765 1.2593 17.5219 1.20991 17.9237 1.1044L18.1144 1.18073C18.3868 1.09542 18.4095 1.05501 19.0316 1.02583C18.5231 1.1044 19.4289 1.14705 18.8613 1.25032C20.1577 1.4187 20.7956 1.07746 21.3836 1.36482C21.9898 1.15379 20.2621 1.19869 20.5981 1.16277C20.3188 1.07971 21.0975 1.00113 21.5062 1.04154C21.9239 1.06624 22.2009 1.36257 23.2407 1.43217C23.1362 1.42319 23.1294 1.44115 23.025 1.43217C23.4109 1.51523 23.7946 1.41421 24.2646 1.5489C24.5461 1.4389 24.8821 1.62074 24.9797 1.45237C24.6596 1.43441 24.3417 1.40972 24.0216 1.39849C24.5665 1.40074 25.1 1.24808 25.9786 1.45911C25.9037 1.48604 25.6335 1.50176 25.4474 1.504C25.7016 1.58931 25.9536 1.5287 26.2147 1.62074C26.1148 1.78238 25.0546 1.50849 24.4598 1.58931C24.73 1.68809 25.5677 1.58033 25.2544 1.73973C25.7016 1.54441 26.2669 1.89463 26.9934 1.8183L26.9298 1.91708C27.0434 1.91932 27.2795 1.90585 27.4815 1.94177L27.0933 2.0181C27.6768 1.98892 28.1581 2.30097 28.7029 2.34362C27.5814 2.1326 28.4759 2.16852 28.015 2.00463C28.7256 2.05851 28.9095 2.1775 29.1116 2.29872C29.3136 2.4222 29.5316 2.56363 30.3012 2.72302C30.0923 2.68261 29.5384 2.47832 29.8744 2.50526C30.1627 2.59057 30.535 2.732 30.6962 2.83303C31.7042 3.08222 30.5713 2.68486 31.0163 2.73425C31.3205 2.95875 31.5226 2.8218 31.9744 2.91834L31.9449 3.02161C33.0482 3.45264 32.3194 2.89813 33.3002 3.3359L32.8234 3.32468L33.3592 3.47733L33.2071 3.55142C33.7974 3.68612 33.9677 3.77592 34.483 4.05205C34.3899 3.93082 34.6419 3.8949 35.1073 4.13511C35.3911 4.35736 34.8894 4.12613 35.5387 4.46737C35.3639 4.44043 35.1641 4.43369 34.9257 4.20246C34.8803 4.21818 34.7509 4.18899 34.7055 4.20471C34.8576 4.32369 35.0642 4.43369 35.264 4.53023C35.4592 4.6335 35.6408 4.73003 35.7566 4.79064C35.6726 4.73676 35.5705 4.67166 35.5251 4.62676C35.8588 4.75023 36.1721 4.90514 36.4967 5.05779C36.6012 5.19249 36.4831 5.13188 36.356 5.09147C36.5376 5.19923 36.6784 5.25311 36.9326 5.43271C36.8123 5.45291 36.7692 5.53373 36.4037 5.30923L36.8214 5.56291C36.9621 5.65047 37.1006 5.75374 37.2391 5.85027C37.2664 5.92211 37.5638 6.26559 37.4434 6.20498C37.818 6.61581 38.574 7.01092 39.0213 7.61706C39.0599 7.63502 39.1257 7.67992 39.2415 7.78768C39.6842 8.33096 39.9952 8.86527 40.5696 9.47141C40.615 9.6308 40.6672 9.78346 40.7058 9.94285C41.0872 10.4637 40.5265 9.30079 41.1667 10.1718C41.6184 10.7937 41.2007 10.4839 41.3029 10.7353C41.564 11.016 42.043 11.5188 42.2178 12.2125C42.0793 12.015 42.0271 11.8399 41.9136 11.6558ZM43.7865 19.2842C43.7661 19.1293 43.7071 18.824 43.7661 18.7117C43.8955 18.8868 43.8274 19.0238 43.7865 19.2842ZM39.187 30.3294C39.2369 30.2172 39.3709 30.0915 39.5389 29.9635C39.4481 30.0803 39.3323 30.206 39.187 30.3294ZM7.93001 34.8508C7.93682 34.8531 7.94137 34.8553 7.94591 34.8576C8.21834 35.1023 8.12072 35.0169 7.93001 34.8508ZM7.36018 34.3502C7.2898 34.3165 7.28526 34.33 7.30115 34.3614C7.36018 34.3726 7.49639 34.4737 7.64396 34.5994C7.61899 34.5455 7.55315 34.4692 7.36018 34.3502ZM23.1748 0.556627L23.3179 0.594791C22.9864 0.603771 23.0795 0.581321 23.1748 0.556627Z" fill="black"/>
<path d="M39.9863 29.1651C40.0295 29.1424 40.0522 29.1447 40.0749 29.1492C40.0998 29.0903 40.0839 29.0744 39.9863 29.1651Z" fill="black"/>
<path d="M39.0281 7.63537L39.0123 7.61724C38.9986 7.61271 38.9895 7.61044 38.9805 7.61271L39.0281 7.63537Z" fill="black"/>
<path d="M18.0137 38.5461C18.1544 38.5978 18.2339 38.6315 18.2838 38.6629C18.2975 38.6359 18.2339 38.609 18.0137 38.5461Z" fill="black"/>
<path d="M4.29492 31.7372L4.64454 32.0807C4.48108 31.9078 4.44249 31.8292 4.37665 31.7305C4.3653 31.7552 4.39935 31.8495 4.29492 31.7372Z" fill="black"/>
<path d="M2.48089 27.9294C2.43776 27.8733 2.41051 27.8015 2.36738 27.7454L2.33105 27.7835C2.46954 28.0462 2.60122 28.2078 2.48089 27.9294Z" fill="black"/>
<path d="M4.27701 31.1649C4.32469 31.0774 4.11355 30.8618 3.8888 30.6082C3.90242 30.6239 3.91377 30.6373 3.92512 30.6553C3.76166 30.6553 4.02047 30.9135 4.27701 31.1649Z" fill="black"/>
<path d="M3.83728 30.5496C3.76917 30.471 3.69879 30.3902 3.64431 30.3071C3.57847 30.3071 3.71241 30.4149 3.83728 30.5496Z" fill="black"/>
<path d="M6.57662 33.7911C6.46991 33.6676 6.42224 33.8135 6.3791 33.7237C6.1657 33.6968 7.28494 34.3254 6.57662 33.7911Z" fill="black"/>
<path d="M4.3437 30.7627L4.33008 30.9266L4.51624 31.0164L4.3437 30.7627Z" fill="black"/>
<path d="M6.07307 32.7362L5.71437 32.3411C5.70756 32.3591 5.6508 32.3209 5.58496 32.2693C5.81653 32.5028 6.05718 32.7699 6.07307 32.7362Z" fill="black"/>
<path d="M5.58541 32.2698C5.46509 32.1486 5.34477 32.0386 5.26758 31.9802C5.33115 32.0476 5.47644 32.1823 5.58541 32.2698Z" fill="black"/>
<path d="M4.83594 31.2927L4.92448 31.4252L5.16967 31.708L4.83594 31.2927Z" fill="black"/>
<path d="M10.6704 36.1421C10.8407 36.2342 11.0201 36.3128 11.1949 36.3981C11.2652 36.3936 11.1381 36.297 10.9406 36.205C10.8044 36.1646 10.6137 36.0636 10.6704 36.1421Z" fill="black"/>
<path d="M9.35059 34.95C9.46637 35.0577 9.45956 35.0846 9.51178 35.1655L9.60486 35.06L9.35059 34.95Z" fill="black"/>
<path d="M10.7929 35.8165C10.8564 35.8232 11.5784 36.1286 10.9359 35.7828C10.8655 35.7873 10.357 35.5112 10.7929 35.8165Z" fill="black"/>
<path d="M18.8093 39.0941L18.664 39.0671L18.6436 39.2961L18.8093 39.0941Z" fill="black"/>
<path d="M26.323 38.3198C25.6601 38.4164 26.2004 38.4927 25.5942 38.5555C25.4512 38.6409 26.0914 38.5062 25.9438 38.587C26.3275 38.45 26.5364 38.4164 26.323 38.3198Z" fill="black"/>
<path d="M25.9413 38.5867C25.88 38.6093 25.8142 38.6343 25.7461 38.6637C25.8596 38.6252 25.9096 38.6025 25.9413 38.5867Z" fill="black"/>
<path d="M3.51465 13.8901C3.53508 14.0428 3.5487 14.1955 3.57367 14.3481C3.57367 14.2471 3.57822 14.1438 3.58049 14.0428L3.51465 13.8901Z" fill="black"/>
<path d="M3.89445 14.696L3.7832 14.8397L3.99661 15.071C3.95347 14.9654 3.88536 14.7814 3.89445 14.696Z" fill="black"/>
<path d="M43.4141 20.4291L43.4458 20.465C43.4958 20.4044 43.5049 20.3079 43.5253 20.1125C43.4867 20.2181 43.4549 20.3236 43.4141 20.4291Z" fill="black"/>
<path d="M43.04 14.8035C43.0491 14.8349 43.0582 14.8664 43.0627 14.9C43.0923 14.8282 43.1127 14.7586 43.1399 14.6868L43.04 14.8035Z" fill="black"/>
<path d="M40.9355 10.5133C41.0354 10.6817 41.1739 10.8658 41.2693 11.0364C41.0354 10.6817 41.0513 10.3809 40.9355 10.5133Z" fill="black"/>
<path d="M24.2049 19.4739L28.9417 14.7371L28.9553 14.7235L28.9679 14.7088C29.1504 14.4957 29.2458 14.2215 29.2349 13.9412C29.2241 13.6608 29.1079 13.3948 28.9095 13.1964C28.7111 12.998 28.4451 12.8818 28.1647 12.871C27.8844 12.8601 27.6102 12.9555 27.3971 13.138L27.3824 13.1506L27.3688 13.1642L22.6322 17.9008L17.8954 13.1583L17.8952 13.1581C17.6858 12.9487 17.4018 12.8311 17.1057 12.8311C16.8095 12.8311 16.5255 12.9487 16.3162 13.1581C16.1068 13.3675 15.9891 13.6515 15.9891 13.9476C15.9891 14.2437 16.1068 14.5277 16.3162 14.7371L16.3164 14.7373L21.0587 19.4739L16.3279 24.199C16.2189 24.2961 16.13 24.4139 16.0663 24.5455C15.9994 24.6837 15.9618 24.8342 15.9559 24.9877C15.95 25.1411 15.9758 25.2941 16.0318 25.437C16.0878 25.58 16.1728 25.7098 16.2814 25.8184C16.3899 25.927 16.5198 26.0119 16.6627 26.0679C16.8057 26.1239 16.9587 26.1498 17.1121 26.1439C17.2655 26.1379 17.4161 26.1004 17.5543 26.0335C17.6858 25.9699 17.8034 25.881 17.9006 25.7721L22.6318 21.0466L27.3688 25.7836L27.3824 25.7973L27.3971 25.8098C27.6102 25.9923 27.8844 26.0877 28.1647 26.0769C28.4451 26.066 28.7111 25.9498 28.9095 25.7514C29.1079 25.553 29.2241 25.287 29.2349 25.0067C29.2458 24.7263 29.1504 24.4522 28.9679 24.239L28.9553 24.2244L28.9417 24.2107L24.2049 19.4739Z" fill="white" stroke="white"/>
</svg>
