<svg width="43" height="40" viewBox="0 0 43 40" fill="none" xmlns="http://www.w3.org/2000/svg">
<path d="M36.4073 33.4753C34.3605 35.8509 28.8633 38.0286 26.3705 38.8205C24.6649 39.1504 20.8208 39.7707 19.0889 39.6123C16.9242 39.4143 16.9242 38.8205 11.6106 36.8407C6.29698 34.861 3.14812 27.1402 1.37693 22.9829C-0.394269 18.8255 0.589729 9.52107 7.67451 4.37388C14.7593 -0.773311 30.5033 2.9881 35.0297 4.37388C39.556 5.75966 40.7368 12.8865 41.1304 16.252C41.524 19.6175 38.9657 30.5058 36.4073 33.4753Z" fill="#FFBC28"/>
<path d="M19.7858 3.09948C19.6124 3.14074 19.714 3.2059 19.6966 3.22979C19.9616 3.13206 19.7685 3.07776 19.7858 3.09948Z" fill="black"/>
<path d="M22.8759 2.49535L22.8193 2.53445L23.3017 2.43237L22.8759 2.49535Z" fill="black"/>
<path d="M25.9604 2.56285C25.8202 2.4738 25.5396 2.46295 25.227 2.47163C24.912 2.47815 24.5674 2.48901 24.2942 2.46295L24.2032 2.42603L23.9521 2.54765C24.2844 2.54113 24.6708 2.51941 25.0301 2.52158C25.3919 2.51941 25.7266 2.52158 25.9604 2.56285Z" fill="black"/>
<path d="M27.5601 3.03181C27.4666 2.96231 27.9195 3.01443 27.1836 2.97534C27.2205 2.9862 27.2304 2.99054 27.25 2.99706C27.3165 3.00358 27.4076 3.01443 27.5601 3.03181Z" fill="black"/>
<path d="M27.2505 2.99926C26.9286 2.9732 27.456 3.06876 27.2505 2.99926V2.99926Z" fill="black"/>
<path d="M28.7364 3.12769L28.3057 3.12986C28.3893 3.17546 28.761 3.22976 28.6182 3.23845C29.0538 3.26234 28.9726 3.21673 28.7364 3.12769Z" fill="black"/>
<path d="M29.1546 3.06664L28.9307 3.06226C28.9676 3.082 29.0266 3.09296 29.1546 3.06664Z" fill="black"/>
<path d="M28.46 3.05148L28.9325 3.06017C28.8759 3.02759 28.8759 2.97764 28.7159 3.05148C28.7602 3.01239 28.6618 3.04497 28.46 3.05148Z" fill="black"/>
<path d="M28.1994 2.99701C27.9681 2.93403 27.6629 2.87973 28.096 2.87539C27.2814 2.81241 27.3872 2.92751 28.1994 2.99701Z" fill="black"/>
<path d="M26.1323 2.41523L25.8123 2.3479C25.7188 2.35876 25.6228 2.36962 25.5293 2.38482C25.672 2.35876 26.147 2.46735 26.1323 2.41523Z" fill="black"/>
<path d="M31.325 3.6183C31.3594 3.59006 31.2068 3.50754 31.1847 3.45976L30.8672 3.44238C31.0222 3.49233 31.3151 3.56617 31.325 3.6183Z" fill="black"/>
<path d="M31.1852 3.45984C31.3427 3.46635 31.5002 3.47938 31.6578 3.49459C31.2517 3.4012 31.1655 3.42292 31.1852 3.45984Z" fill="black"/>
<path d="M29.2607 2.9082C28.9974 2.9104 28.734 2.92136 28.4707 2.92794C28.7833 2.92794 29.0983 2.91698 29.4084 2.92794L29.2607 2.9082Z" fill="black"/>
<path d="M33.0506 4.00488L32.7725 4.01791H33.2598L33.0506 4.00488Z" fill="black"/>
<path d="M34.1734 4.30029C33.9667 4.30681 34.3851 4.47404 34.1759 4.45449C34.4835 4.52616 34.7395 4.57394 34.988 4.60217C34.737 4.54788 34.4983 4.44146 34.1734 4.30029Z" fill="black"/>
<path d="M35.386 4.66962C35.2777 4.63704 35.1301 4.62401 34.9873 4.60229C35.1153 4.6327 35.263 4.65225 35.386 4.66962Z" fill="black"/>
<path d="M32.4336 3.67505C32.4631 3.70111 32.5173 3.76626 32.7609 3.85096L32.6108 3.71848C32.5567 3.70328 32.4976 3.68808 32.4336 3.67505Z" fill="black"/>
<path d="M32.6045 3.71387L32.6094 3.71821C32.8014 3.76816 32.9343 3.80291 32.9909 3.81811C32.9417 3.80508 32.826 3.77251 32.6045 3.71387Z" fill="black"/>
<path d="M32.3857 3.66391C32.4031 3.6683 32.4155 3.67049 32.4303 3.67488C32.4179 3.66172 32.408 3.65733 32.3857 3.66391Z" fill="black"/>
<path d="M30.4688 3.17743C30.7518 3.17525 31.3351 3.22303 30.801 3.04712C30.5893 3.07535 30.8945 3.17525 30.4688 3.17743Z" fill="black"/>
<path d="M32.1972 3.50538L31.7148 3.38159C31.7173 3.40765 31.796 3.45978 31.6582 3.4576L32.1972 3.50538Z" fill="black"/>
<path d="M32.4424 3.52709L32.1963 3.50537L32.3735 3.55098L32.4424 3.52709Z" fill="black"/>
<path d="M34.6586 4.31769C34.8702 4.3481 35.0893 4.41976 35.3354 4.49795C35.0819 4.39153 34.8161 4.28729 34.5601 4.19824C34.5109 4.21344 34.378 4.2243 34.6586 4.31769Z" fill="black"/>
<path d="M33.6758 3.99386C33.6906 3.99606 33.708 4.00044 33.7228 4.00264C33.6981 3.98728 33.6758 3.97851 33.6758 3.99386Z" fill="black"/>
<path d="M37.3355 5.72076C37.3305 5.70773 37.3255 5.69687 37.3206 5.68384C37.3132 5.68601 37.3082 5.68818 37.3008 5.69035L37.3355 5.72076Z" fill="black"/>
<path d="M34.5197 4.16782C34.3228 4.09181 34.1949 4.07878 34.0693 4.07227C34.2244 4.10919 34.3868 4.14611 34.5566 4.2004C34.5788 4.19171 34.5837 4.1852 34.5197 4.16782Z" fill="black"/>
<path d="M35.9933 4.90179C35.917 4.84098 35.826 4.77365 35.7275 4.7085C35.7989 4.77799 35.9466 4.90613 35.9933 4.90179Z" fill="black"/>
<path d="M33.7812 4.04634C33.7713 4.04416 33.7614 4.04416 33.749 4.04199C33.8084 4.08108 33.8035 4.06805 33.7812 4.04634Z" fill="black"/>
<path d="M33.7827 4.04612C33.891 4.0635 33.9796 4.06567 34.0707 4.07001C33.9451 4.04178 33.827 4.01789 33.7236 4.00269C33.7458 4.01572 33.7679 4.03309 33.7827 4.04612Z" fill="black"/>
<path d="M38.3647 5.83135C38.313 5.84656 38.1801 5.76837 38.025 5.64241C37.8601 5.52513 37.6903 5.34487 37.5353 5.16896C37.1218 4.92789 37.1612 5.33401 37.3211 5.68367C37.3605 5.6663 37.3876 5.63806 37.7592 5.90954C37.7223 5.83787 37.5599 5.65327 37.4491 5.50559C37.331 5.36659 37.2621 5.26669 37.4467 5.36008C37.9413 5.7358 37.8011 5.71191 37.966 5.9508C37.9241 5.82484 38.0915 5.93777 38.2761 6.05939C38.4582 6.18536 38.6477 6.32869 38.6772 6.22879C38.5443 6.10066 38.409 5.97469 38.2638 5.85959C38.2785 5.83787 38.4508 5.95515 38.3647 5.83135Z" fill="black"/>
<path d="M36.6585 5.16248C36.6043 5.13207 36.5551 5.09515 36.501 5.06909C36.661 5.1994 36.7668 5.30582 36.9268 5.523C37.1926 5.67719 37.2664 5.69457 37.3033 5.69022C37.0794 5.49476 36.8455 5.30582 36.5994 5.13642L36.6585 5.16248Z" fill="black"/>
<path d="M35.7805 4.66936C35.9552 4.65198 36.3859 4.82355 36.1964 4.61072C35.6943 4.35879 35.7977 4.51082 35.4777 4.41309C36.3072 4.73668 35.2193 4.36313 35.778 4.65633C35.6106 4.6042 35.4728 4.54774 35.3301 4.49779C35.4753 4.56511 35.6008 4.63895 35.7239 4.70845C35.7189 4.70411 35.714 4.69976 35.7091 4.69542L35.7042 4.69325H35.7066C35.6796 4.66936 35.6697 4.6585 35.7066 4.68022C35.7091 4.68022 35.7189 4.68456 35.7239 4.68456C35.7386 4.67587 35.7608 4.67153 35.7805 4.66936C35.9921 4.80184 35.8026 4.70845 35.7263 4.68456C35.7214 4.68673 35.7116 4.6889 35.7091 4.69325L35.7116 4.69542C35.8445 4.74971 35.9774 4.81052 36.1103 4.86699C36.2407 4.92997 36.3687 5.00164 36.4991 5.06679C36.3515 4.96255 36.1546 4.83876 35.7805 4.66936Z" fill="black"/>
<path d="M31.3564 2.94043C31.3837 2.95346 31.3812 2.95998 31.3812 2.96649C31.4481 2.96649 31.4728 2.96432 31.3564 2.94043Z" fill="black"/>
<path d="M31.7368 3.07315C31.663 3.07315 31.599 3.09052 31.375 3.04275C31.1855 2.97976 31.3873 2.99931 31.3849 2.96673C31.2421 2.96673 30.8902 2.94719 31.3086 3.06881H31.3799C31.7565 3.17305 32.2143 3.39458 32.1454 3.3924C32.0543 3.28599 31.9706 3.2078 31.7368 3.07315Z" fill="black"/>
<path d="M33.875 3.77005L34.6576 3.95248C34.5395 3.88515 34.4189 3.82434 34.2983 3.75919L34.3008 3.81131C33.8701 3.6658 33.9439 3.7505 33.875 3.77005Z" fill="black"/>
<path d="M37.3601 5.80981L37.21 5.81633L37.6284 5.99659L37.3601 5.80981Z" fill="black"/>
<path d="M38.0223 6.45898L37.9238 6.48505L38.1281 6.63924L38.0223 6.45898Z" fill="black"/>
<path d="M11.698 37.3984L11.4814 37.2898C11.5799 37.3441 11.6463 37.3767 11.698 37.3984Z" fill="black"/>
<path d="M13.2213 38.2519L13.2832 38.2324C13.1965 38.2194 13.1569 38.2172 13.2213 38.2519Z" fill="black"/>
<path d="M39.1243 28.218C38.9249 28.4765 38.6665 28.7479 38.7846 28.7458L38.92 28.6915C38.9791 28.4895 39.0504 28.3418 39.1243 28.218Z" fill="black"/>
<path d="M27.4072 38.8707C27.4417 38.8707 27.4786 38.8728 27.5131 38.8728C27.5844 38.8207 27.6533 38.7729 27.7124 38.7295C27.6213 38.7729 27.5155 38.8207 27.4072 38.8707Z" fill="black"/>
<path d="M27.2768 39.3052L26.8018 39.3399C26.91 39.3399 27.0626 39.3291 27.2768 39.3052Z" fill="black"/>
<path d="M4.94975 31.2779L4.70117 31.1194C4.94729 31.4517 4.88576 31.2779 4.94975 31.2779Z" fill="black"/>
<path d="M41.1337 15.1765C41.104 15.4393 41.0966 15.6478 41.0991 15.8302C41.1461 15.5153 41.2254 15.2547 41.1337 15.1765Z" fill="black"/>
<path d="M12.8991 36.9077C12.7686 36.8534 12.7071 36.8403 12.6973 36.8599C12.8302 36.9164 12.9089 36.9402 12.8991 36.9077Z" fill="black"/>
<path d="M41.1131 16.5839C41.123 16.5383 41.128 16.4927 41.1379 16.4449C41.1156 16.2538 41.1081 16.0627 41.0982 15.8281C41.0685 16.0627 41.0314 16.3298 41.1131 16.5839Z" fill="black"/>
<path d="M8.3457 3.39914C8.37047 3.39045 8.39771 3.37742 8.42 3.36873C8.41752 3.3557 8.3878 3.3709 8.3457 3.39914Z" fill="black"/>
<path d="M18.031 0.979736C17.935 0.999282 17.7824 1.02969 17.6348 1.06009C17.7086 1.05358 17.8267 1.02752 18.031 0.979736Z" fill="black"/>
<path d="M39.8727 9.63629C39.7935 9.4582 39.8505 9.61023 39.8727 9.63629V9.63629Z" fill="black"/>
<path d="M39.8799 8.62402C39.9096 8.65877 39.9368 8.68266 39.9616 8.67832C39.9319 8.6718 39.9046 8.65226 39.8799 8.62402Z" fill="black"/>
<path d="M41.7193 18.5622C41.7193 18.5687 41.7193 18.5731 41.7168 18.5796C41.7416 18.521 41.7391 18.5296 41.7193 18.5622Z" fill="black"/>
<path d="M39.8086 9.34961C39.8235 9.42128 39.8457 9.50164 39.873 9.59068C39.8655 9.54941 39.8482 9.47775 39.8086 9.34961Z" fill="black"/>
<path d="M39.7776 9.40186C39.7553 9.33888 39.7405 9.28893 39.7206 9.24332C39.6934 9.22595 39.6959 9.24766 39.7776 9.40186Z" fill="black"/>
<path d="M39.981 9.88399C39.9365 9.78191 39.9018 9.68418 39.8721 9.58862C39.8795 9.62554 39.8795 9.64292 39.8721 9.63423C39.8968 9.68852 39.9266 9.76237 39.981 9.88399Z" fill="black"/>
<path d="M0.278113 17.7241C0.28059 17.7111 0.283066 17.6959 0.288019 17.6807C0.250873 17.4765 0.253349 17.5656 0.278113 17.7241Z" fill="black"/>
<path d="M37.5153 33.2588C37.5203 33.2501 37.5227 33.2457 37.5252 33.2371C37.5178 33.2436 37.5079 33.2544 37.5029 33.2609L37.5153 33.2588Z" fill="black"/>
<path d="M37.0791 33.8886C37.1382 33.73 37.1997 33.6171 37.2735 33.5237C37.3424 33.4282 37.4163 33.3478 37.5024 33.2566L37.0988 33.2957C37.1013 33.4977 37.0889 33.6888 37.0791 33.8886Z" fill="black"/>
<path d="M8.44419 34.9593L8.78875 35.3828C8.17346 35.0461 7.86336 34.6769 8.14639 35.1134C8.29898 35.0353 8.69768 35.3914 9.11854 35.7281C9.3302 35.8953 9.5394 36.0647 9.71906 36.1776C9.90119 36.2884 10.0464 36.3449 10.1153 36.3014L10.3614 36.5707C10.2802 36.5056 10.2531 36.5077 10.1719 36.4426C10.4033 36.7141 10.5558 36.7466 10.7331 36.7857C10.9152 36.8226 11.1071 36.8769 11.4862 37.1397C11.7421 37.3308 11.907 37.4872 11.6978 37.3982C11.9144 37.5111 12.1457 37.6045 12.3673 37.7087C12.5469 37.8195 12.4706 37.8369 12.291 37.7261C12.6109 37.9107 12.9579 38.0649 13.2951 38.2278L13.2828 38.2321C13.4575 38.2582 13.8242 38.3451 14.0015 38.3863C14.2476 38.5275 13.8538 38.3624 13.903 38.4211C14.1073 38.4797 14.314 38.5297 14.5183 38.5818C14.725 38.7425 14.2033 38.6317 13.807 38.4537C14.0039 38.7034 14.1442 38.7273 14.3608 38.7773C14.5798 38.8272 14.8825 38.8772 15.4584 39.1443C15.2616 39.1052 15.0671 39.0487 14.8727 38.9988C15.1754 39.2811 15.6504 39.3615 16.2829 39.6221C16.1303 39.5461 15.0548 39.0118 15.7439 39.1313C15.8325 39.1682 15.9384 39.2051 16.0664 39.2398C16.1968 39.2703 16.3518 39.2941 16.5414 39.3072C16.5143 39.4093 16.8711 39.4744 17.3191 39.5482L17.2551 39.6786C17.7473 39.735 17.7252 39.6568 18.023 39.6395C18.557 39.7372 18.6506 39.8588 18.7638 39.9631C19.6326 40.0868 18.1903 39.722 19.2215 39.8154C19.9353 39.9457 20.4546 39.924 21.3184 39.8718C21.823 39.9283 21.2274 39.9565 21.407 40L21.8574 39.8914C21.9682 39.8936 21.9313 39.9283 21.914 39.9457C22.293 39.9022 21.946 39.8132 22.5342 39.7654C22.6105 39.6872 22.9133 39.7307 23.2923 39.7719C23.6688 39.8002 24.1241 39.8219 24.4761 39.6981C24.6607 39.7176 24.3998 39.7937 24.4613 39.8393C24.956 39.7242 25.1652 39.6807 25.3523 39.6329C25.5368 39.5787 25.7017 39.52 26.0906 39.381C26.3269 39.3788 26.5607 39.3571 26.7969 39.3419C26.2678 39.3398 26.8855 39.0987 27.4024 38.8728C27.2153 38.8706 27.0529 38.8533 26.9471 38.8533C27.235 38.7751 27.5131 38.6687 27.7937 38.5753C27.9045 38.5709 27.8331 38.6383 27.71 38.7295C27.7642 38.7034 27.8183 38.6774 27.8577 38.6578C28.185 38.6296 28.0521 38.7469 27.8503 38.8772C27.7346 38.875 27.6214 38.875 27.5082 38.8728C27.3187 39.0118 27.1366 39.1443 27.2055 39.2116C27.2596 39.1856 27.3679 39.1465 27.4861 39.1074C27.4368 39.1443 27.4048 39.1725 27.4344 39.179C27.4688 39.1856 27.5525 39.1334 27.6854 39.0618L27.9365 39.1595L27.966 39.0878C28.3672 39.0292 28.756 38.9336 29.1547 38.8489C29.5362 38.6513 29.866 38.4146 30.2573 38.1844C30.6363 37.9281 31.0818 37.6805 31.6454 37.3547C31.4141 37.5958 31.6823 37.548 31.7414 37.674C31.3427 37.7153 30.8332 38.167 30.1613 38.395C30.5108 38.2821 30.4616 38.3603 30.3878 38.4211C30.752 38.2148 31.1236 38.0323 31.4682 37.8108C31.5002 37.9194 31.7488 37.7695 32.0687 37.6653C31.894 37.6197 32.0909 37.5024 32.3591 37.3243C32.6274 37.1484 32.9966 36.9595 33.1812 36.7944C33.255 36.8378 33.2082 36.9703 32.6569 37.2527C33.3584 37.0637 33.2378 36.5968 33.8826 36.3622C33.7595 36.4426 33.6857 36.4773 33.6611 36.5381C33.9195 36.3144 34.6111 35.841 34.5052 36.0104L34.3871 36.0994C34.7981 35.8301 35.3691 35.3567 35.8146 34.9136C36.0312 34.6856 36.2207 34.4728 36.3536 34.3034C36.484 34.1318 36.5431 33.995 36.5283 33.9407C36.5554 33.9494 36.6415 34.1752 36.6341 34.2426L36.9246 33.4216C37.0156 33.1501 37.0771 32.8678 37.151 32.5985C37.2076 32.8048 37.9139 32.5659 37.5152 33.2348C37.6703 33.0676 37.8844 32.87 38.0985 32.4508C37.9952 32.5681 37.6604 32.6354 37.7687 32.4617C38.2536 32.086 38.0764 32.188 38.6178 31.6777C38.4554 31.8492 38.3594 31.5213 38.5341 31.2194C38.544 31.2846 38.795 31.3063 38.7556 31.4323L38.9476 30.5549C38.8812 30.7634 39.147 30.6808 39.3045 30.5288C39.2159 30.5918 39.6417 29.8403 39.718 29.6188L39.4964 29.9337C39.7401 29.495 39.7327 29.2344 39.7253 28.9803C39.7155 28.724 39.7204 28.4786 39.8828 28.0269C39.9025 28.1507 40.129 28.3961 40.316 27.9335C40.284 27.8075 40.1954 27.5274 40.1339 27.1799C40.0773 26.8346 40.0108 26.4111 40.0724 25.9963L40.193 25.8573C40.2225 25.6444 40.2397 25.4294 40.2594 25.2144C40.3185 25.4294 40.3874 25.8312 40.4317 26.2612C40.4809 26.6912 40.5178 27.1473 40.4981 27.4687C40.668 27.1321 40.6335 27.3927 40.7738 26.865C40.8968 26.6956 40.8132 27.1756 40.759 27.3341C40.9091 26.9258 41.0199 26.524 41.1503 26.1179C40.9805 26.1396 41.2266 25.1471 41.079 25.1666C41.0322 25.6227 40.9707 26.0766 40.9018 26.5305C40.727 26.5479 40.6606 25.6705 40.8895 24.8105C41.0076 24.602 41.138 25.0277 41.1971 25.0211C41.1823 24.9603 41.2069 24.7475 41.2414 24.5433C41.2709 24.337 41.3103 24.1372 41.3374 24.1003L41.3448 24.4869C41.5072 24.0091 41.3079 23.6573 41.5712 23.0948C41.618 22.895 41.8936 22.5171 41.8025 22.4693C41.554 22.7755 40.9658 22.7538 40.8673 22.5171C40.9018 22.4497 41.2242 21.4876 41.3497 21.2683C41.549 20.9512 41.6229 21.8091 41.7927 21.5398C41.7509 21.5224 41.7238 21.3313 41.7164 21.2509C41.7853 21.0402 41.8468 21.3552 41.8862 20.886C41.7287 20.7905 42.0167 19.9391 41.773 20.6515C41.7779 20.1911 41.8764 20.1715 41.9133 19.6351C41.7853 19.7958 41.5983 19.1291 41.5761 18.673C41.618 18.7012 41.6795 18.6035 41.7066 18.5535C41.7459 18.0888 41.7779 17.7304 41.8099 17.3808C41.8444 17.0311 41.8616 16.6858 41.8542 16.2514C41.8985 16.1711 41.933 15.7476 42.0117 15.9257C41.9773 15.7997 41.9133 15.6868 41.8985 15.4175C42.0191 14.8897 41.9502 16.0191 42.1053 15.6151C42.0068 15.5847 41.9404 14.9201 41.8395 14.5422C41.7705 14.6074 41.7804 14.8268 41.8222 15.0809C41.8542 15.335 41.9133 15.6216 41.9527 15.8127C41.741 15.8193 41.5097 15.159 41.3275 14.2729C41.1922 13.5671 41.4235 13.9515 41.3792 13.8321C41.2291 12.4877 40.8624 12.744 40.7689 11.6386C40.7885 11.1847 41.0199 11.5691 41.0913 11.4561C41.1922 11.7363 41.2192 11.9622 41.2316 12.1663C41.2439 12.3683 41.2562 12.5464 41.2882 12.744C41.2857 12.5789 41.2685 12.4161 41.2562 12.2532C41.3423 12.4291 41.4432 12.8135 41.4383 13.0307C41.4703 12.8374 41.3792 12.2684 41.2291 11.6234C41.0863 10.9762 40.8575 10.2638 40.727 9.74693C40.6187 9.58188 40.4489 9.29303 40.4588 9.45157C40.5055 9.55364 40.5572 9.65572 40.6015 9.75779C40.6113 10.0727 40.2323 9.21484 40.3382 9.62314C40.0994 9.23005 39.8041 8.81306 39.558 8.24405L39.6392 8.08117C39.6047 8.11157 39.7524 8.47861 39.873 8.61977C39.7869 8.51336 39.7155 8.28315 39.6343 8.05294C39.5457 7.8249 39.4275 7.60338 39.2676 7.52085L39.4029 7.94435C39.1101 7.58383 38.672 7.20159 38.3717 6.74769C38.3988 7.02134 38.4628 6.84325 38.5514 7.23417C38.5464 7.04523 38.7433 7.3319 38.923 7.60338C39.0928 7.87919 39.243 8.13764 39.206 7.85748C39.2233 8.07031 39.2873 8.22668 39.3562 8.40042C39.4275 8.57199 39.5112 8.7566 39.5358 9.01938C39.5752 8.98898 39.5457 8.82175 39.7155 9.24308C39.7376 9.25611 39.7746 9.2952 39.7967 9.32126C39.7992 9.33429 39.8016 9.33864 39.8041 9.35167C39.8016 9.34298 39.8016 9.33646 39.7992 9.32561C39.8139 9.34081 39.8164 9.34298 39.7967 9.31692C39.7746 9.2105 39.7598 9.12146 39.7721 9.08019C39.9788 9.24742 40.2471 9.93154 40.38 10.1509C40.4489 10.4158 40.2865 10.0575 40.2865 10.2117C40.3529 10.3203 40.4268 10.4289 40.4908 10.5396C40.3948 10.6026 40.5203 11.2715 40.2742 10.6765L40.4341 11.2259C40.4563 11.5647 40.5474 12.0143 40.6458 12.2879C40.6827 12.5529 40.8944 12.9395 40.7689 12.7201C40.8378 13.0133 40.9165 13.3043 40.9756 13.5997L40.9485 13.6105C41.0593 14.4858 41.3152 15.424 41.1306 16.4469C41.1454 16.5968 41.1626 16.7488 41.1725 16.9269C41.1774 17.105 41.1725 17.3069 41.1503 17.5589L41.0519 17.6544C41.0765 18.041 40.8968 18.8033 40.983 18.9727C40.695 19.3701 40.7516 20.8274 40.5843 21.4963L40.7049 21.5376C40.631 22.0002 40.5818 22.4476 40.5252 23.0296L40.6409 23.0101C40.6433 23.2663 40.5498 23.5791 40.4464 23.9287C40.3455 24.2784 40.2151 24.6584 40.124 25.0472C40.0945 24.9864 40.1536 24.7909 40.2126 24.6563C39.9764 25.0971 39.9099 25.5945 39.8262 26.081C39.7869 26.3242 39.7524 26.5675 39.7007 26.7977C39.6441 27.0257 39.5629 27.2385 39.4571 27.434C39.43 27.6468 39.3685 27.7923 39.2971 27.927C39.302 27.9074 39.3069 27.8901 39.3069 27.8749C39.2996 27.8966 39.2897 27.927 39.2799 27.9574C39.2356 28.0443 39.1765 28.1268 39.1199 28.2202C39.1765 28.1442 39.2356 28.0725 39.2651 28.003C39.2134 28.1594 39.1273 28.3939 39.0633 28.6328L38.9132 28.6958C38.9058 28.7154 38.9009 28.7306 38.8959 28.7501C38.7655 28.9608 38.8762 28.9477 39.0091 28.8543C38.9821 28.976 38.9624 29.0889 38.955 29.1801C38.699 29.2974 38.7335 29.7904 38.4308 29.9641C38.4726 30.1596 37.8918 31.0826 38.0148 31.2911C37.9878 31.2868 37.9385 31.3454 38.005 31.2281C37.8401 31.4605 37.6531 31.6777 37.5669 31.9144L37.3725 31.9448L37.2863 32.2467L37.1805 32.5399C36.8704 32.794 36.735 32.8852 36.8679 32.5355C36.6661 32.933 36.5701 33.0893 36.4668 33.2175C36.3683 33.35 36.2822 33.4694 36.0902 33.8082L36.041 33.7257C35.8663 33.9363 35.6251 34.3121 35.4503 34.3859C35.3765 34.4272 35.2879 34.4901 35.1845 34.5705C35.0787 34.6487 34.9507 34.7399 34.8154 34.8485C34.68 34.9571 34.5323 35.0765 34.3723 35.2047C34.2075 35.3263 34.0302 35.4544 33.8481 35.5869C33.4913 35.8649 33.0655 36.1081 32.6643 36.3601C32.2361 36.5794 31.83 36.8096 31.4313 36.9443C31.8546 37.0225 30.6856 37.1897 30.72 37.3721C30.5994 37.3569 30.3705 37.4155 30.592 37.2635C29.8438 37.6523 29.3738 37.6414 28.884 37.9846C28.7683 37.9563 29.0243 37.8499 28.9283 37.8412C28.8692 37.8738 28.6896 37.9672 28.5911 37.9607C28.4951 37.952 28.692 37.8781 28.8102 37.813C28.3991 37.9433 28.1875 38.0584 28.0792 38.1648C27.9684 38.2669 27.9586 38.3603 27.9561 38.4515C27.491 38.4776 27.2867 38.5557 26.9963 38.7273C26.8265 38.7034 26.5558 38.6969 27.0898 38.5688C26.9372 38.5948 26.4696 38.6752 26.0389 38.7469C25.6057 38.812 25.2095 38.8924 25.2046 38.9619C25.1012 38.938 24.769 39.001 24.6902 39.027C24.5155 39.0444 24.3826 39.0574 24.2669 39.0683C24.1512 39.0748 24.0577 39.0791 23.9617 39.0857C23.7722 39.0965 23.5851 39.1139 23.2431 39.1399C23.307 39.1465 23.371 39.1486 23.435 39.1508C23.1741 39.3376 22.8616 39.2138 22.3078 39.2507L22.3226 39.2333C21.0477 39.1074 21.7664 39.3007 20.5161 39.1139L20.5776 39.2203C20.4398 39.4397 19.475 39.0118 18.7465 39.001L18.9976 39.09C18.7933 39.1095 18.5275 38.9901 18.274 38.8598C18.0156 38.7338 17.7719 38.5818 17.5824 38.5297C17.5037 38.4949 17.7227 38.5253 17.8408 38.534C16.8711 38.2061 17.6759 38.6513 16.9179 38.5188C16.8022 38.4146 17.1468 38.3798 16.6546 38.2495C16.5389 38.1974 16.1673 38.1561 15.7415 38.0866C15.3206 38.0084 14.8481 37.8912 14.5675 37.6979C14.6807 37.8043 14.7989 37.9107 14.4518 37.8238C13.9375 37.6414 13.2631 37.0463 12.7512 36.9464C12.702 36.9008 12.6897 36.8748 12.697 36.8617C12.3131 36.7054 11.5354 36.2232 11.2696 36.1537C11.24 35.9083 10.706 35.5739 10.2211 35.2459C9.73137 34.9202 9.2982 34.6009 9.43357 34.488C9.11608 34.2252 8.82074 33.9429 8.51802 33.6692H8.56971C8.03564 33.1045 7.77476 32.9612 7.52126 32.807C7.41789 32.6593 7.53602 32.7375 7.56064 32.7375C7.20131 32.301 7.0118 32.0577 6.80999 31.8471C6.70908 31.7428 6.60325 31.6473 6.47773 31.5365C6.35468 31.4236 6.21193 31.2976 6.02488 31.1369L6.06426 30.9979C5.83537 30.835 5.23485 29.6166 4.53589 28.7566C4.55312 28.7588 4.58757 28.7696 4.64664 28.8348C4.2504 28.3505 3.9526 27.6816 3.6991 27.1082C3.43822 26.537 3.22902 26.0549 2.9263 25.9268C2.77371 25.6987 2.63835 25.4642 2.50052 25.2296C2.87216 26.1982 2.25933 25.1471 2.35778 25.5641C2.17319 25.1905 2.07228 24.5455 2.28886 25.0038L2.29871 25.0819C2.44884 25.1297 2.32578 24.8322 2.22487 24.5086C2.11905 24.1872 1.99599 23.8484 2.07474 23.8419C1.40777 21.9307 1.16166 19.9826 1.13459 18.1322L0.962308 18.3516L0.952463 17.7C1.00661 17.5285 1.08783 17.472 1.09275 17.9346C1.17643 17.6913 1.02384 17.1593 0.979536 17.1441C1.08044 16.2406 1.17889 17.5046 1.19119 17.2244L1.18873 16.8487L1.16412 16.9334C1.09521 16.625 1.03122 16.5946 1.09029 16.0408C1.1592 15.6933 1.21827 15.8714 1.23796 15.7324C1.25272 15.7346 1.25518 15.689 1.27241 15.5239L1.41762 14.7203L1.22565 15.0244C1.20596 14.6552 1.37086 14.2643 1.13705 14.6139C1.22319 14.4858 1.32163 14.236 1.4127 13.9276C1.46192 13.7734 1.49638 13.604 1.55544 13.4325C1.60959 13.2587 1.66619 13.0806 1.72034 12.9025C1.77695 12.7266 1.81879 12.5464 1.88278 12.3835C1.9443 12.2206 2.00091 12.0642 2.05259 11.9274C2.15842 11.6538 2.23472 11.4431 2.29625 11.3736C2.35778 11.1238 2.44392 10.8806 2.54728 10.6309C2.64819 10.3789 2.80817 10.1357 2.96568 9.85552C2.86231 9.98149 2.67034 10.0032 2.96076 9.52541C3.05182 9.67961 3.21672 9.47763 3.42345 9.21267C3.52682 9.07802 3.63757 8.926 3.75078 8.79135C3.87138 8.66104 3.99936 8.55028 4.11503 8.48947C3.92799 8.60892 4.15933 8.29183 4.36607 7.99213C4.5925 7.70328 4.79923 7.43398 4.49897 7.61206C4.83123 7.27326 4.61711 7.6555 4.90998 7.4318C5.56219 6.53051 6.73123 5.74649 7.86582 4.92121C7.85843 4.87778 7.62216 4.97117 7.83136 4.74747C8.08486 4.65843 8.34082 4.5759 8.59186 4.49337C8.81336 4.32614 8.67061 4.17412 9.20222 4.02426C9.11854 4.03295 8.99302 4.04815 9.153 3.94174C10.4353 3.31626 11.7446 2.68644 13.1376 2.18259C14.5232 1.67222 15.9901 1.28998 17.4815 1.17922C17.0705 1.18139 17.3314 1.12492 17.6292 1.06411C17.4298 1.08366 17.612 0.970727 17.5603 0.927291C17.9787 0.894714 18.3995 0.875168 18.8154 0.859965C19.0123 0.677535 20.1322 0.677535 20.2429 0.536369L19.8541 0.601522C20.3586 0.382171 19.0665 0.327877 19.1059 0.119385C18.5496 0.377828 17.4741 0.0868079 16.5733 0.555915C16.3494 0.560258 16.7358 0.451669 16.6103 0.429951C16.3888 0.566774 16.1033 0.653645 15.5471 0.747032L15.6012 0.710112C14.8432 0.909917 14.3017 1.05325 13.7356 1.20311C13.4526 1.27695 13.1622 1.35296 12.8423 1.45286C12.5174 1.54408 12.163 1.66136 11.747 1.80904L11.9169 1.85682C11.56 1.97844 11.4714 1.98278 11.2967 2.02839C11.1367 2.18476 11.3803 2.08051 11.6289 1.98061C11.8824 1.88722 12.1384 1.79384 11.9956 1.94369C11.715 1.935 11.0998 2.18476 10.5165 2.44972C9.93072 2.71033 9.38434 2.99701 9.1653 2.97095C8.65585 3.24242 9.37942 2.98615 8.87981 3.26631L8.70999 3.28803L8.63616 3.42919C8.30144 3.60294 8.08978 3.63551 8.04302 3.60077C8.12178 3.55516 8.25468 3.45308 8.33836 3.40096C7.86582 3.58556 7.18654 4.1524 7.04133 4.2371C7.19885 4.14154 7.35636 4.04598 7.52372 3.95911C6.24885 4.84086 4.75739 6.03969 3.93045 7.22983L4.04612 7.17553C3.71387 7.61424 3.58343 7.78798 3.42099 7.96172C3.26348 8.13764 3.07397 8.31355 2.77371 8.82827L2.78602 8.787C2.70234 9.01287 2.54236 9.28434 2.38731 9.56885C2.47837 9.28 1.99845 10.0119 2.12889 9.64052C2.00829 9.90982 1.93446 10.077 1.89262 10.19C1.8557 10.3051 1.8434 10.3637 1.83847 10.4137C1.82863 10.5114 1.85078 10.57 1.78433 10.9479L1.62682 11.0761C1.5899 11.3367 1.63912 11.3758 1.44961 11.9209C1.54314 11.454 1.18627 12.2315 1.27733 11.7015C0.950002 12.2467 0.883551 12.7006 0.812178 13.0633C0.733421 13.4259 0.713732 13.7105 0.504535 13.9559C0.627592 14.5422 0.876167 12.959 0.866323 13.2739C0.94508 13.1566 0.952463 13.2761 0.937696 13.4716C0.927852 13.667 0.886012 13.9363 0.831867 14.1166C0.738343 14.488 0.381477 14.7073 0.246114 15.6759C0.25842 15.5804 0.23627 15.5717 0.253498 15.4761C0.145208 15.8345 0.270726 16.1928 0.123057 16.6315C0.268265 16.8878 0.0959846 17.2114 0.287954 17.2874C0.287954 16.992 0.263342 16.6945 0.285493 16.3991C0.28057 16.6511 0.351944 16.8986 0.391322 17.181C0.411011 17.3221 0.425778 17.4742 0.428239 17.6414C0.4307 17.8086 0.435623 17.9911 0.413472 18.1974C0.371633 18.1344 0.312565 17.889 0.278109 17.7196C0.228886 17.9628 0.329793 18.1843 0.278109 18.4363C0.179664 18.408 0.162436 18.1366 0.147669 17.8086C0.142746 17.4785 0.162436 17.0919 0.0935235 16.8183C0.00246114 17.0789 0.204275 17.8477 0 17.5719C0.123057 17.7695 0.132902 18.0063 0.123057 18.2821C0.113213 18.5557 0.0984458 18.8641 0.23627 19.1855L0.115674 19.1486C0.142746 19.2507 0.219042 19.4635 0.231348 19.6546L0.0492229 19.318C0.21412 19.8414 0.0590675 20.3561 0.204275 20.86C0.0418394 19.7915 0.307643 20.6037 0.324871 20.1455C0.497151 20.7905 0.452851 20.9838 0.411011 21.2031C0.388861 21.3139 0.364249 21.429 0.366711 21.6071C0.369172 21.7873 0.398705 22.0306 0.511918 22.3889C0.477462 22.2934 0.447928 22.1044 0.443006 21.9785C0.443006 21.8525 0.465156 21.7873 0.524224 21.9372C0.570986 22.2174 0.62267 22.5887 0.607903 22.7712C0.90324 23.7202 0.679276 22.5996 0.863862 22.9905C0.826945 23.3423 1.06568 23.4401 1.23796 23.8397L1.12474 23.8723C1.43485 24.9538 1.45454 24.0894 1.72772 25.0602C1.61697 24.9451 1.51853 24.8257 1.41762 24.7084C1.48899 24.8713 1.56775 25.032 1.65143 25.1905L1.48161 25.1297C1.80648 25.6336 1.83355 25.8117 2.04767 26.3372C2.06736 26.1896 2.27902 26.3329 2.4956 26.7825C2.58666 27.1126 2.30117 26.6522 2.64819 27.2798C2.50791 27.1647 2.3307 27.0431 2.29871 26.7238C2.24949 26.7086 2.16335 26.6065 2.11166 26.5892C2.18796 26.9562 2.52021 27.4297 2.63835 27.6599C2.59651 27.5686 2.54482 27.4622 2.53252 27.4014L2.85001 27.8293L3.18472 28.2462C3.22656 28.4048 3.13058 28.3071 3.03459 28.2115C3.15273 28.3896 3.27086 28.4938 3.44068 28.7566C3.3127 28.7284 3.23641 28.787 2.97306 28.4222C3.16749 28.698 3.37669 28.9651 3.58835 29.2301C3.58835 29.3039 3.76309 29.7144 3.66218 29.621C3.79016 29.8664 4.02889 30.127 4.27255 30.4072C4.52112 30.6852 4.79185 30.9718 4.98136 31.2889C5.01827 31.3106 5.08472 31.3628 5.19302 31.4779C5.60649 32.036 5.90921 32.5811 6.57864 33.1241L6.76815 33.5715C7.25053 34.0254 6.48758 32.9851 7.29729 33.7322C7.88058 34.2491 7.38836 34.0232 7.54341 34.2447C7.89043 34.4641 8.49833 34.8181 8.94626 35.3762C8.74199 35.2394 8.62139 35.0982 8.44419 34.9593ZM15.7267 39.1269C15.5569 39.103 15.2074 39.077 15.1139 38.9749C15.3428 38.9249 15.4634 39.0162 15.7267 39.1269ZM28.6773 38.7425C28.5714 38.8077 28.3868 38.8554 28.1653 38.8685C28.313 38.825 28.4804 38.7707 28.6773 38.7425ZM40.6163 11.6407C40.6187 11.6451 40.6237 11.6494 40.6261 11.6538C40.6581 11.9708 40.6483 11.8579 40.6163 11.6407ZM40.4957 10.9935C40.4612 10.9327 40.4465 10.9414 40.4391 10.9718C40.4784 11.0087 40.5301 11.1499 40.5597 11.315C40.5794 11.2628 40.5794 11.176 40.4957 10.9935ZM1.20596 15.6499L1.16412 15.7737C1.15674 15.4826 1.18627 15.5673 1.20596 15.6499Z" fill="black"/>
<path d="M27.2974 39.2554C27.2454 39.2467 27.2281 39.2315 27.2107 39.2141C27.1513 39.2445 27.1562 39.264 27.2974 39.2554Z" fill="black"/>
<path d="M4.99379 31.3066L4.98141 31.287C4.96655 31.2805 4.95665 31.2783 4.94922 31.2783L4.99379 31.3066Z" fill="black"/>
<path d="M41.9062 21.2856C41.8666 21.4225 41.8344 21.4963 41.8047 21.5463C41.8319 21.5549 41.8666 21.4963 41.9062 21.2856Z" fill="black"/>
<path d="M38.9307 7.85986L39.1743 8.20952C39.066 8.03578 39.0513 7.96411 39.0143 7.86855C38.9947 7.88592 38.9996 7.9728 38.9307 7.85986Z" fill="black"/>
<path d="M36.8942 4.68901C36.8278 4.66078 36.7687 4.613 36.7023 4.58911L36.6875 4.63906C36.9385 4.78457 37.1231 4.8823 36.8942 4.68901Z" fill="black"/>
<path d="M39.0637 7.35568C39.1277 7.28401 38.9554 7.06466 38.7486 6.83228C38.761 6.84748 38.7708 6.86051 38.7806 6.87571C38.6108 6.87354 38.8471 7.10375 39.0637 7.35568Z" fill="black"/>
<path d="M38.7018 6.77814C38.6403 6.70647 38.5837 6.62828 38.5247 6.55444C38.4582 6.55662 38.5911 6.65 38.7018 6.77814Z" fill="black"/>
<path d="M40.1758 10.212C40.1536 10.073 40.0257 10.1621 40.038 10.0774C39.8632 9.96228 40.4957 10.9179 40.1758 10.212Z" fill="black"/>
<path d="M39.2039 7L39.1621 7.14768L39.3442 7.24758L39.2039 7Z" fill="black"/>
<path d="M40.299 9.16726C40.2473 9.01306 40.1833 8.8632 40.1267 8.71118C40.112 8.72421 40.0726 8.67209 40.0332 8.60693C40.1563 8.88058 40.2744 9.1868 40.299 9.16726Z" fill="black"/>
<path d="M40.0324 8.60681C39.9708 8.46348 39.8921 8.33317 39.833 8.26367C39.8724 8.33751 39.9684 8.49605 40.0324 8.60681Z" fill="black"/>
<path d="M39.6094 7.55566L39.6611 7.69249C39.7177 7.79456 39.7792 7.89446 39.8284 7.99871C39.762 7.84886 39.6807 7.70335 39.6094 7.55566Z" fill="black"/>
<path d="M41.5225 14.197L41.6042 14.7183C41.6512 14.7682 41.6661 14.6249 41.6314 14.4294C41.5918 14.3056 41.5547 14.1145 41.5225 14.197Z" fill="black"/>
<path d="M41.6307 12.5771C41.6282 12.7227 41.6034 12.7357 41.5762 12.8204L41.7297 12.816L41.6307 12.5771Z" fill="black"/>
<path d="M41.8857 14.1099C41.9401 14.1577 42.0739 14.8701 42.0095 14.199C41.9624 14.1469 41.8609 13.6213 41.8857 14.1099Z" fill="black"/>
<path d="M41.3666 22.0459L41.3838 21.9134L41.1328 21.9004L41.3666 22.0459Z" fill="black"/>
<path d="M40.1535 29.0367C40.4513 28.4482 40.0673 28.85 40.3504 28.3244C40.3504 28.168 40.119 28.7544 40.1264 28.5937C40.0427 28.9738 39.932 29.154 40.1535 29.0367Z" fill="black"/>
<path d="M40.126 28.5919C40.1408 28.5311 40.1532 28.466 40.1631 28.3965C40.1359 28.5072 40.1285 28.5594 40.126 28.5919Z" fill="black"/>
<path d="M19.6621 0.860305C19.8098 0.858133 19.9599 0.855961 20.1076 0.858133L19.8147 0.814697L19.6621 0.860305Z" fill="black"/>
<path d="M20.4863 0.610224L20.6045 0.742703L20.8506 0.599365C20.7595 0.608052 20.5651 0.634114 20.4863 0.610224Z" fill="black"/>
<path d="M16.9055 39.711L16.9498 39.685C16.8883 39.6372 16.78 39.6111 16.5684 39.5525C16.6791 39.6068 16.7923 39.6654 16.9055 39.711Z" fill="black"/>
<path d="M11.125 37.2026L11.2142 37.2634L11.1349 37.0527L11.125 37.2026Z" fill="black"/>
<path d="M7.11719 34.0906C7.25747 34.2383 7.44452 34.3925 7.59219 34.5358C7.25009 34.2426 7.21563 33.9451 7.11719 34.0906Z" fill="black"/>
<path d="M21.7715 39.6851C18.6828 39.6851 15.8475 39.1183 13.8269 38.2778C10.1451 36.7489 6.06203 32.9439 3.42368 28.5873C0.157741 23.1947 -0.693815 17.4156 1.02899 12.3141C3.05697 6.31122 8.2746 3.28158 12.2986 1.79824C16.6425 0.193289 20.568 0.00217179 20.6049 0L20.6295 0.434358C20.5902 0.43653 16.7385 0.625476 12.4733 2.20437C8.55517 3.65078 3.4729 6.60224 1.50153 12.4378C-0.184358 17.4308 0.652431 23.0926 3.85684 28.3831C6.44843 32.6637 10.4453 36.3927 14.0361 37.8847C17.8091 39.4527 24.5009 40.0435 30.2772 37.6328C35.0248 35.6521 38.2932 31.9449 39.7305 26.9128C43.4468 13.9016 40.0381 6.03758 35.298 4.23933C30.9245 2.57792 22.1062 1.81344 19.3054 2.84939L19.1159 2.44978C22.0644 1.35737 30.9417 2.11098 35.4949 3.83973C40.4221 5.70964 43.9981 13.7626 40.2104 27.0192C38.7362 32.1816 35.3743 35.9866 30.4889 38.0259C27.6561 39.2073 24.6068 39.6851 21.7715 39.6851Z" fill="black"/>
<path d="M23.1522 19.4739L27.8889 14.7371L27.9026 14.7235L27.9152 14.7088C28.0977 14.4957 28.193 14.2215 28.1822 13.9412C28.1714 13.6608 28.0552 13.3948 27.8568 13.1964C27.6583 12.998 27.3924 12.8818 27.112 12.871C26.8316 12.8601 26.5575 12.9555 26.3444 13.138L26.3297 13.1506L26.3161 13.1642L21.5795 17.9008L16.8427 13.1583L16.8425 13.1581C16.6331 12.9487 16.3491 12.8311 16.0529 12.8311C15.7568 12.8311 15.4728 12.9487 15.2634 13.1581C15.054 13.3675 14.9364 13.6515 14.9364 13.9476C14.9364 14.2437 15.054 14.5277 15.2634 14.7371L15.2636 14.7373L20.0059 19.4739L15.2752 24.199C15.1661 24.2961 15.0772 24.4139 15.0135 24.5455C14.9467 24.6837 14.9091 24.8342 14.9032 24.9877C14.8972 25.1411 14.9231 25.2941 14.9791 25.437C15.0351 25.58 15.1201 25.7098 15.2286 25.8184C15.3372 25.927 15.467 26.0119 15.61 26.0679C15.753 26.1239 15.906 26.1498 16.0594 26.1439C16.2128 26.1379 16.3633 26.1004 16.5016 26.0335C16.6331 25.9699 16.7507 25.881 16.8478 25.7721L21.579 21.0466L26.3161 25.7836L26.3297 25.7973L26.3444 25.8098C26.5575 25.9923 26.8316 26.0877 27.112 26.0769C27.3924 26.066 27.6583 25.9498 27.8568 25.7514C28.0552 25.553 28.1714 25.287 28.1822 25.0067C28.193 24.7263 28.0977 24.4522 27.9152 24.239L27.9026 24.2244L27.8889 24.2107L23.1522 19.4739Z" fill="white" stroke="white"/>
</svg>
